<svg width="104" height="94" viewBox="0 0 104 94" fill="none" xmlns="http://www.w3.org/2000/svg">
<path d="M42.4471 62.6929C42.466 62.5543 42.523 62.4157 42.58 62.2771C42.751 61.8613 42.979 61.4851 43.2449 61.1485C43.7008 60.5346 44.2707 59.9802 44.8596 59.4852C45.7715 58.7129 46.7783 58.0595 47.8231 57.4853C49.3428 56.6338 50.9386 55.9408 52.5533 55.3468C54.8139 54.4953 57.1125 53.8221 59.4491 53.2479C62.5835 52.4756 65.737 51.8618 68.9284 51.3668C70.8471 51.0697 72.7847 50.8123 74.7034 50.5747C75.9382 50.4163 77.173 50.1985 78.3888 49.9213C80.6114 49.3867 82.777 48.6342 84.8286 47.6046C86.6903 46.6739 88.438 45.5057 90.0527 44.1592C91.5725 42.8721 92.9592 41.4069 94.194 39.8228C95.3908 38.2585 96.4546 36.5952 97.3664 34.8329C98.2783 33.1102 99.0382 31.3083 99.684 29.4668C100.33 27.665 100.862 25.8037 101.299 23.9226C101.717 22.1207 102.059 20.2792 102.325 18.4377C102.572 16.7348 102.743 15.0121 102.875 13.2696C102.989 11.7449 103.046 10.2005 103.065 8.67579C103.084 7.40853 103.065 6.14126 103.027 4.874C102.989 3.94335 102.951 3.0325 102.875 2.12166C102.837 1.62663 102.799 1.13161 102.743 0.636583C102.743 0.57718 102.724 0.517777 102.724 0.458374C102.553 0.57718 102.382 0.676185 102.211 0.77519C101.717 1.09201 101.204 1.36922 100.691 1.66624C99.874 2.12166 99.0382 2.55728 98.2023 2.9929C97.0815 3.56713 95.9417 4.10176 94.7829 4.61659C93.3771 5.25022 91.9334 5.84425 90.4897 6.39868C88.78 7.05211 87.0702 7.66594 85.3416 8.24017C83.3659 8.8738 81.3902 9.46783 79.3766 9.98266C77.154 10.5569 74.9124 11.0717 72.6518 11.5073C70.7331 11.8836 68.7764 12.1608 66.8958 12.6756C65.2811 13.1112 63.7043 13.6854 62.1846 14.3587C60.6839 15.0319 59.2211 15.824 57.8154 16.715C56.4286 17.606 55.0988 18.5961 53.8451 19.6852C52.5913 20.7742 51.4135 21.9623 50.3117 23.2295C49.2099 24.4968 48.203 25.8433 47.2722 27.2689C46.3414 28.7144 45.4865 30.2193 44.7457 31.8034C43.9858 33.4072 43.3399 35.0507 42.808 36.7536C42.2571 38.4961 41.8202 40.2584 41.4972 42.0603C41.1553 43.9216 40.9463 45.8027 40.8513 47.6838C40.7563 49.6441 40.7753 51.6242 40.9273 53.5845C41.0793 55.6438 41.3642 57.6833 41.7632 59.6832C41.9531 60.693 42.1811 61.7029 42.4471 62.6929Z" fill="#56B746"/>
<path d="M2.76296 26.4175C2.87694 26.4373 2.97193 26.4769 3.08591 26.4967C3.38985 26.5759 3.6938 26.6551 3.99775 26.7343C4.47266 26.8729 4.96658 27.0115 5.44149 27.1699C6.08738 27.3679 6.71427 27.6055 7.34116 27.8234C8.12003 28.1006 8.87989 28.4174 9.63976 28.7342C10.5326 29.1104 11.4065 29.5064 12.2803 29.9223C13.2681 30.3975 14.237 30.8727 15.2058 31.4073C16.2696 31.9816 17.3144 32.5756 18.3402 33.2092C19.461 33.8825 20.5629 34.6151 21.6267 35.3477C22.7855 36.1596 23.9063 36.9912 25.0081 37.8625C26.1669 38.7931 27.3067 39.7634 28.4085 40.7732C29.5673 41.8425 30.6881 42.9513 31.7709 44.1196C32.9107 45.3472 33.9935 46.5947 35.0383 47.9214C36.1401 49.3074 37.166 50.7331 38.1348 52.1984C39.1606 53.7429 40.1294 55.327 41.0223 56.9704C41.9721 58.6931 42.827 60.4554 43.6058 62.2771C44.4417 64.1978 45.1825 66.1383 45.8474 68.1382C46.5503 70.2569 47.1582 72.3954 47.6711 74.5735C48.222 76.8903 48.6779 79.2466 49.0199 81.6029C49.3998 84.1374 49.6658 86.6918 49.8367 89.2659C49.9127 90.5728 49.9887 91.8796 50.0077 93.1865C49.9887 93.0677 49.9887 92.9687 49.9697 92.8499C49.9317 92.5331 49.8937 92.2162 49.8367 91.8994C49.7607 91.3846 49.6658 90.8698 49.5708 90.3748C49.4378 89.7015 49.2858 89.0085 49.1339 88.3352C48.9439 87.5036 48.7159 86.672 48.488 85.8403C48.222 84.8701 47.9181 83.8998 47.6141 82.9494C47.2532 81.8603 46.8733 80.7713 46.4743 79.702C46.0184 78.5139 45.5435 77.3259 45.0306 76.1774C44.4607 74.9102 43.8718 73.6429 43.2449 72.4152C42.561 71.0688 41.8391 69.7421 41.0793 68.455C40.2624 67.069 39.4076 65.7027 38.4957 64.376C37.5269 62.9701 36.5201 61.5841 35.4752 60.2376C34.3544 58.8119 33.1956 57.4259 31.9799 56.0794C30.6881 54.6537 29.3393 53.2677 27.9526 51.9608C26.4708 50.5549 24.9511 49.2084 23.3744 47.9412C21.7027 46.5947 19.993 45.3076 18.2263 44.08C16.3456 42.7929 14.4269 41.5653 12.4703 40.4366C10.3616 39.2089 8.21501 38.0803 6.03039 37.0308C4.89059 36.4764 3.73179 35.9616 2.57299 35.4467C1.9841 35.1893 1.3762 34.9319 0.76831 34.6943C0.616337 34.6349 0.48336 34.5755 0.331387 34.5161C0.274396 34.4963 0.0464363 34.4369 0.00844297 34.3775C-0.0105537 34.3577 0.00844297 34.2983 0.00844297 34.2785C0.103426 32.6746 0.464363 31.0509 1.03426 29.546C1.49018 28.3778 2.04109 27.3283 2.76296 26.4175Z" fill="#865445"/>
</svg>
