<svg width="134" height="40" viewBox="0 0 134 40" fill="none" xmlns="http://www.w3.org/2000/svg">
<g clip-path="url(#clip0)">
<path d="M51.0678 19.9799C51.0678 30.8156 39.7166 39.6 25.7151 39.6C11.7129 39.6 0.362244 30.8156 0.362244 19.9799C0.362244 9.14417 11.7129 0.359802 25.7151 0.359802C39.7166 0.359802 51.0678 9.14437 51.0678 19.9799Z" fill="#80BB3D"/>
<path d="M48.2353 19.9438C48.2211 10.6731 38.1267 3.17321 25.6894 3.1923C22.318 3.19737 19.121 3.75494 16.2514 4.74905C13.8167 4.44895 11.4232 5.4059 11.4232 5.4059C11.4232 5.4059 13.1687 8.226 15.7897 9.25687C17.6319 9.98154 19.7113 9.37179 20.0753 9.02763C20.0758 9.02742 19.3602 7.56753 17.05 6.54539C16.156 6.15027 14.9206 5.79392 13.5495 5.60062C14.4729 5.68001 15.2565 5.58011 17.1214 6.17402C19.7178 7.00103 20.4033 8.55088 20.4033 8.55088C20.5521 7.09077 19.5742 6.05951 18.6118 5.50661C20.8242 4.92956 23.2069 4.6124 25.6906 4.60874C37.3456 4.59067 46.8047 11.4585 46.8175 19.9478C46.8217 22.5754 45.92 25.0506 44.3273 27.2165C44.2995 27.189 43.2611 26.1271 41.9905 25.1986C42.562 21.7773 40.0459 18.5974 37.3078 17.0282C38.5633 13.0341 34.7056 8.95433 27.7168 8.80834C26.6766 8.80022 25.2532 8.85382 24.3267 8.95352L24.7149 6.4857L24.1614 6.48651C22.2221 6.50235 21.5015 7.74438 21.2922 8.23189L20.5432 9.67291C16.1962 10.8792 13.8116 12.9421 13.5984 13.1261C13.0954 13.5604 13.199 13.7478 14.0948 13.3773C15.6938 12.7155 17.5545 12.1212 19.5048 11.6699L13.6404 22.4609C10.503 22.1019 7.23047 22.4701 5.57484 24.5966C4.95169 23.149 4.61321 21.6098 4.61098 20.012C4.60326 15.0946 7.76692 10.7117 12.6959 7.89037C11.4485 7.07737 10.3192 7.73768 9.96428 7.9923C9.95453 7.9992 9.95474 7.99961 9.94479 8.00549C5.77281 11.0591 3.18743 15.3119 3.19453 20.0122C3.19799 22.2098 3.76834 24.307 4.80123 26.2286C4.67474 26.8912 4.74844 27.6719 5.33768 28.425C6.13037 29.4378 7.71778 29.8855 9.57403 29.2362C12.0796 28.3608 14.0055 25.6146 14.6177 24.6185C12.8081 24.3222 12.0924 24.9805 11.837 25.3214C11.0987 26.3056 10.0134 27.411 8.87616 27.8989C6.54824 28.8971 5.04205 26.7909 6.88042 25.0956C8.12509 23.9474 10.5945 23.7084 12.8217 23.9893C12.8217 23.9893 12.8766 23.9895 12.8764 23.9895C15.691 24.3612 17.8613 25.2126 18.333 25.4047C17.9011 27.9434 17.5972 29.5657 17.5972 29.5657L18.4262 29.5761C21.1348 29.5748 21.3728 27.5521 21.3728 27.5521C21.3769 27.5557 21.5121 26.8404 21.5121 26.8404C23.9958 28.0609 26.4114 29.3645 26.5342 29.4368C27.17 29.7864 28.0896 29.7663 28.2319 28.8424L29.2841 21.6804C32.0386 21.5198 34.7442 20.4469 36.1878 18.8802C37.4445 19.8662 38.6073 21.4376 38.8291 23.3389C37.2914 22.6707 35.5523 22.2717 33.7669 22.5484C29.6309 23.189 28.1846 27.4431 30.4591 29.8567C32.1655 31.6676 34.613 31.8646 37.2455 30.8697C38.6347 30.3446 40.0033 29.3155 40.9381 27.8609C40.7411 27.6611 40.3675 27.3092 39.9434 27.0479C38.7817 26.333 37.9206 27.1432 37.6705 27.427C36.9334 28.3501 35.9245 29.0248 34.8688 29.2829C30.0579 30.4575 29.6043 24.158 34.5357 23.9689C36.095 23.909 37.4682 24.5746 38.6774 25.4504C38.677 25.451 38.6766 25.4522 38.6766 25.4528C39.9251 26.3905 41.6396 28.1271 42.4952 28.7233C44.319 29.9939 46.0961 29.4343 46.0961 29.4343C46.0961 29.4343 45.7888 28.9281 45.278 28.2833C47.1629 25.825 48.2396 22.9777 48.2353 19.9438ZM18.6723 23.4865C17.7377 23.186 15.9882 22.8225 15.6242 22.7501L20.2479 14.2173C19.7653 17.0601 19.1671 20.5744 18.6723 23.4865ZM29.5058 20.1728L29.9314 17.277C26.7373 17.3015 26.2784 19.4859 26.2258 19.8313C24.6975 19.0942 25.9951 17.5064 28.1448 17.0993C30.5253 16.6481 32.7848 17.1803 34.1472 17.7399C33.3811 19.1503 31.6877 19.9907 29.5058 20.1728ZM34.7013 16.023C33.4906 15.706 31.8766 15.4189 30.1935 15.479L30.7586 11.6329C27.3541 11.0589 27.1687 13.3482 27.1687 13.3482C27.0477 14.1698 26.9095 15.1082 26.7622 16.1046C23.6012 17.3287 23.2997 20.1499 26.0035 21.2483C25.7304 23.0987 25.3068 25.9629 25.3005 25.9584C24.4213 25.5746 22.6542 24.8526 21.8684 24.5627L24.0146 10.9227C33.2134 9.96915 35.0106 14.2045 34.7013 16.023ZM41.1767 30.4301L41.173 30.4329C37.3417 33.4457 31.7955 35.3425 25.7375 35.3517C19.721 35.3608 14.2904 33.5172 10.4412 30.5984C10.0611 30.3105 9.09728 29.6573 7.8857 30.2463C12.0098 34.2203 18.4751 36.7752 25.7407 36.7641C33.0319 36.7531 39.5097 34.16 43.6195 30.1488C42.4605 29.5752 41.4483 30.2266 41.1767 30.4301Z" fill="white"/>
<path d="M103.231 4.47475C101.914 4.47475 101.417 5.00308 100.948 6.12795C100.281 8.10216 99.6577 9.94358 99.5297 10.3223C99.3269 9.851 98.0818 6.96754 97.0057 4.47475H92.9348C94.8059 8.47394 97.5239 14.2882 97.7468 14.7649C97.6654 14.9523 97.6049 15.0969 97.6049 15.0969C97.2416 15.9085 96.4972 16.0183 95.8542 16.0183L94.3925 15.9852L94.0406 18.6138C94.8979 18.8484 95.7819 18.9422 96.7746 18.9422C98.441 18.9422 99.7119 18.1864 100.374 16.814L101.149 15.1777C101.298 14.8603 101.448 14.5215 101.588 14.1613L105.44 4.47455H103.231V4.47475Z" fill="white"/>
<path d="M88.027 9.57705C88.027 9.57705 86.2209 9.57705 85.8761 9.57705V7.38517H90.4079C91.48 7.33867 92.0843 6.74882 92.0843 5.69075L92.0863 5.69502V4.44507H84.3507C82.7549 4.47816 82.0199 5.4808 82.0199 6.65684V18.7301H88.3117C92.1701 18.7301 93.5403 16.2646 93.5403 14.1537C93.5405 11.8759 91.8357 9.57705 88.027 9.57705ZM86.9671 15.79C86.9671 15.79 86.1947 15.79 85.8761 15.79V12.5174C86.2083 12.5174 87.4353 12.5174 87.4353 12.5174C88.7634 12.5149 89.4792 13.2333 89.4792 14.1129C89.4794 14.8331 89.2195 15.79 86.9671 15.79Z" fill="white"/>
<path d="M123.441 13.1623C123.605 12.7243 124.923 9.23232 125.2 8.49689C125.502 9.22359 126.951 12.7152 127.137 13.1623H123.441ZM114.315 11.4463C114.748 11.0441 115.245 10.3101 115.581 9.54846C115.582 9.54805 116.091 8.38683 116.091 8.38683C116.453 7.57567 117.16 7.46582 117.804 7.46582H117.895L118.284 4.56917L118.041 4.52897C117.551 4.44389 117.138 4.4043 116.745 4.4043C115.087 4.4043 113.808 5.15942 113.146 6.53181L112.249 8.42704C111.772 9.44775 111.179 9.88328 110.268 9.88328C110.268 9.88328 109.721 9.88328 109.468 9.88328C109.468 9.51678 109.468 4.4447 109.468 4.4447H107.937C106.367 4.47739 105.633 5.44917 105.612 6.60105V18.7296H109.468C109.468 18.7296 109.468 13.1911 109.468 12.8226C109.686 12.8226 110.044 12.8226 110.044 12.8226C111.297 12.8226 112.346 13.7298 113.164 15.5184C113.164 15.519 114.643 18.7296 114.643 18.7296H121.337C121.337 18.7296 122.288 16.2116 122.375 15.9795H128.32C128.411 16.2017 129.46 18.7296 129.46 18.7296H133.622L127.276 4.4445H124.621C123.265 4.4445 122.777 4.99983 122.295 6.19638V6.19597L118.007 16.8327L117.003 14.7795C116.178 13.0817 115.274 11.9659 114.315 11.4463Z" fill="white"/>
<path d="M78.6189 11.0853C79.5965 10.6179 80.7703 9.52853 80.7703 7.92244C80.7703 5.44041 77.8676 4.32935 74.9931 4.32935C73.6489 4.32935 72.1092 4.57645 70.3129 5.0664L70.6444 8.09097C70.6444 8.09097 72.495 7.53787 73.5165 7.45056C75.6233 7.27087 76.5366 7.90701 76.5366 8.67087C76.5366 9.01747 76.5366 10.0729 73.7399 10.0729H72.3906V12.9919H73.5165C75.777 12.9919 76.6178 13.3496 76.6178 14.3131C76.6178 15.2705 75.6552 15.7892 73.7596 15.7557C72.7208 15.7557 71.6189 15.6274 70.6296 15.397C70.6698 15.5499 70.8978 16.3915 71.2582 17.1385C71.5127 17.6662 72.0806 18.6873 73.2032 18.8055C73.2032 18.8055 74.0111 18.8934 74.6487 18.877C78.5898 18.7738 80.8524 17.3166 80.8524 14.5957C80.8522 12.7326 79.7744 11.7594 78.6189 11.0853Z" fill="white"/>
<path d="M64.5915 4.4455H61.933C60.6477 4.4455 60.1431 4.95047 59.6832 6.02133L54.5588 18.73H58.6518C58.6518 18.73 59.6039 16.212 59.6908 15.9803H65.6349C65.7275 16.202 66.7758 18.73 66.7758 18.73H70.9383L64.5915 4.4455ZM60.7572 13.1622C60.9222 12.7243 62.2392 9.2325 62.5174 8.49687C62.8193 9.22357 64.268 12.7151 64.4532 13.1622H60.7572Z" fill="white"/>
<path d="M68.043 27.745C69.0572 27.1056 69.6518 26.1151 69.6518 25.0223C69.6518 23.2504 68.1496 21.343 64.8512 21.343H60.9616C59.4489 21.3746 58.719 22.2774 58.6465 23.3736V35.6272H65.6059C70.3429 35.6272 70.7111 32.3584 70.7111 31.3562C70.7111 29.6506 69.7171 28.334 68.043 27.745ZM62.5029 24.282C62.8158 24.282 64.1188 24.282 64.1188 24.282C65.2816 24.282 65.6936 24.9663 65.6936 25.5519C65.6936 26.1562 65.2816 26.8619 64.1188 26.8619C64.1188 26.8619 62.8158 26.8619 62.5029 26.8619V24.282ZM64.2615 32.6873C64.2615 32.6873 62.8213 32.6873 62.5029 32.6873V29.8016C62.8347 29.8016 64.7303 29.8016 64.7303 29.8016C65.6589 29.8016 66.6518 30.1618 66.6518 31.173C66.6518 32.132 66.2605 32.6873 64.2615 32.6873Z" fill="white"/>
<path d="M118.201 21.3653H115.542C114.258 21.3653 113.753 21.8709 113.293 22.9411L108.169 35.6502H112.262C112.262 35.6502 113.214 33.1318 113.301 32.9001H119.244C119.338 33.1223 120.386 35.6502 120.386 35.6502H124.548L118.201 21.3653ZM114.367 30.0823C114.532 29.6445 115.849 26.1523 116.127 25.4167C116.429 26.144 117.878 29.6347 118.064 30.0823H114.367Z" fill="white"/>
<path d="M95.655 21.3657C94.3387 21.3657 93.841 21.8938 93.3718 23.0185C92.7054 24.9925 92.0814 26.8341 91.9541 27.2126C91.7507 26.7415 90.1068 23.7848 89.0501 21.3367H85.0518C86.8887 25.2646 89.9478 31.1789 90.171 31.6555C90.0891 31.8429 90.0292 31.9876 90.0292 31.9876C89.6656 32.799 88.9214 32.9089 88.278 32.9089L86.8162 32.8758L86.4644 35.5042C87.3222 35.7387 88.2059 35.8323 89.1986 35.8323C90.865 35.8323 92.1356 35.077 92.7982 33.7046L93.5728 32.0683C93.7224 31.7509 93.8711 31.4122 94.013 31.0518L97.8648 21.3655H95.655V21.3657Z" fill="white"/>
<path d="M84.1707 24.3866L84.5586 21.4896L84.3173 21.4498C83.8264 21.3643 83.4132 21.3249 83.0201 21.3249C81.3616 21.3249 80.0832 22.0802 79.4203 23.4526L78.524 25.3482C78.0467 26.3681 77.4546 26.8035 76.5435 26.8035C76.5435 26.8035 75.9963 26.8035 75.7425 26.8035C75.7425 26.4374 75.7425 21.3657 75.7425 21.3657H74.2136C72.631 21.399 71.8974 22.3854 71.8859 23.5497V35.6502H75.7425C75.7425 35.6502 75.7425 30.1119 75.7425 29.7436C75.9612 29.7436 76.3196 29.7436 76.3196 29.7436C77.5726 29.7436 78.6215 30.6508 79.4398 32.439C79.4398 32.4394 80.9186 35.65 80.9186 35.65H85.2099L83.2794 31.6997C82.4526 30.0018 81.5486 28.8863 80.5894 28.3661C81.0229 27.9641 81.5198 27.2303 81.8556 26.4686C81.8564 26.4678 82.3655 25.3068 82.3655 25.3068C82.7287 24.4959 83.4349 24.3862 84.0792 24.3862H84.1707V24.3866Z" fill="white"/>
<path d="M107.955 33.8605C108.281 32.9819 108.555 31.7537 108.554 31.7578C107.51 32.1669 106.259 32.7101 104.479 32.6697C101.785 32.6697 100.364 30.7803 100.364 28.5042C100.364 26.278 101.835 24.2979 104.399 24.2979C105.792 24.2979 107.041 24.6798 108.576 25.5763L108.725 25.6628V22.1143C107.076 21.4546 105.738 21.1584 104.427 21.1584C102.267 21.1584 100.296 21.9129 98.8743 23.2837C97.4455 24.6609 96.6584 26.574 96.6584 28.6701C96.6584 30.3249 97.348 32.0845 98.5041 33.3775C99.498 34.4898 101.313 35.8148 104.317 35.8148C104.965 35.8148 105.425 35.7966 106.002 35.6745C107.006 35.4609 107.63 34.7385 107.955 33.8605Z" fill="white"/>
</g>
<defs>
<clipPath id="clip0">
<rect width="133.807" height="40" fill="white"/>
</clipPath>
</defs>
</svg>
