<svg width="32" height="36" viewBox="0 0 32 36" fill="none" xmlns="http://www.w3.org/2000/svg">
<g clip-path="url(#clip0)">
<path d="M0.827086 5.70254H3.83071C4.78839 5.70254 5.61548 6.48609 5.61548 7.4873V12.3192V16.1935C5.61548 19.4148 9.3156 22.0266 14.5828 22.9843L12.7545 25.9444C12.1451 25.7267 11.4921 25.5526 10.8392 25.5526C7.96614 25.5526 5.61548 27.9033 5.61548 30.7763C5.61548 33.6493 7.96614 36 10.8392 36C13.4075 36 15.584 34.1282 15.9758 31.6469H21.5042C21.896 34.1282 24.0726 36 26.6409 36C29.5139 36 31.8646 33.6493 31.8646 30.7763C31.8646 27.9033 29.5139 25.5526 26.6409 25.5526C25.9444 25.5526 25.3349 25.6832 24.7255 25.9444L22.8972 22.9843C28.1645 22.0701 31.8646 19.4148 31.8646 16.1935V12.3192C31.821 5.52842 26.3362 0 19.5453 0C19.11 0 18.7183 0.391778 18.7183 0.827086V11.4486H10.8392C10.3603 11.4486 10.0121 11.8404 10.0121 12.2757C10.0121 12.7545 10.4039 13.1028 10.8392 13.1028H30.1669V16.1499C30.1669 19.11 24.9432 21.5913 18.7183 21.5913C12.5369 21.5913 7.26965 19.11 7.26965 16.1499V12.2757V7.4873C7.26965 5.57195 5.70254 4.04837 3.83071 4.04837H0.827086C0.391778 4.04837 0 4.39661 0 4.87545C0 5.35429 0.391778 5.70254 0.827086 5.70254ZM30.1233 11.4486H21.5913L26.1185 6.9214C26.4667 6.57316 26.4667 6.05079 26.1185 5.74607C25.7703 5.39782 25.2479 5.39782 24.9432 5.74607L20.416 10.2297V1.74123C25.5526 2.13301 29.7316 6.26844 30.1233 11.4486ZM10.8392 34.3023C8.88029 34.3023 7.31318 32.7352 7.31318 30.7763C7.31318 28.8174 8.88029 27.2503 10.8392 27.2503C12.7981 27.2503 14.3652 28.8174 14.3652 30.7763C14.3216 32.7352 12.7545 34.3023 10.8392 34.3023ZM30.1669 30.7763C30.1669 32.7352 28.5998 34.3023 26.6409 34.3023C24.682 34.3023 23.1149 32.7352 23.1149 30.7763C23.1149 28.8174 24.682 27.2503 26.6409 27.2503C28.5562 27.2503 30.1669 28.8174 30.1669 30.7763ZM21.0689 23.2019L23.289 26.7715C22.3748 27.555 21.7219 28.6433 21.5042 29.9057H15.9758C15.7582 28.6433 15.1487 27.555 14.1911 26.7715L16.4111 23.2019C17.1511 23.289 17.9347 23.3325 18.7183 23.3325C19.5018 23.3325 20.2854 23.289 21.0689 23.2019Z" fill="white"/>
</g>
<defs>
<clipPath id="clip0">
<rect width="31.821" height="36" fill="white"/>
</clipPath>
</defs>
</svg>
