<svg width="38" height="36" viewBox="0 0 38 36" fill="none" xmlns="http://www.w3.org/2000/svg">
<path fill-rule="evenodd" clip-rule="evenodd" d="M31.9176 5.70782C29.3256 3.25442 25.515 2.38681 21.4506 2.97181C20.322 3.13381 19.1736 3.40561 18.027 3.78901C19.6452 4.30021 21.1644 4.99322 22.5072 5.78162C24.8922 7.17842 26.7444 8.89561 27.6444 10.4508C27.8928 10.881 27.7452 11.43 27.3168 11.6784C26.8884 11.9268 26.3376 11.781 26.091 11.3526C25.335 10.0476 23.7186 8.56981 21.6 7.32781C19.7622 6.24961 17.5626 5.36402 15.2352 4.93922C13.428 5.83022 11.6676 6.99302 10.0314 8.41502C11.9862 8.74262 13.9752 9.50221 15.7716 10.4544C18.7812 12.0528 21.3048 14.2362 22.2408 15.8544C22.4892 16.2846 22.3434 16.8336 21.9132 17.082C21.4848 17.3304 20.934 17.1846 20.6874 16.7544C19.899 15.3936 17.6562 13.4928 14.9274 12.0456C12.834 10.935 10.485 10.1124 8.33216 10.0386L8.26737 10.1052C6.92277 11.5236 5.80678 13.0392 4.92838 14.5908C6.99118 14.8302 9.17277 15.5682 11.1024 16.5348C13.7862 17.8812 16.0344 19.71 16.8588 21.2976C17.0856 21.7386 16.9128 22.2804 16.4718 22.5072C16.0308 22.734 15.489 22.5612 15.2622 22.1202C14.6052 20.8566 12.6666 19.3266 10.3014 18.1404C8.32318 17.1468 6.07676 16.4214 4.05716 16.3152C3.36956 17.8524 2.91417 19.4022 2.69637 20.9142C2.18877 24.453 2.99697 27.7704 5.23797 30.1356L5.60698 30.5046C8.19718 32.958 12.0078 33.8256 16.0722 33.2424C20.2266 32.6466 24.6294 30.5406 28.2924 27.072L28.3392 27.0306C28.6344 26.748 28.9422 26.4402 29.2554 26.109C32.409 22.7808 34.3062 18.927 34.8264 15.2982C35.334 11.7594 34.5258 8.44383 32.2848 6.07683L31.9176 5.70782ZM21.1986 1.19162C25.7904 0.532818 30.141 1.55162 33.1542 4.40822C33.3036 4.54862 33.4476 4.6926 33.5862 4.8402C36.2286 7.6284 37.1898 11.4804 36.6066 15.552C36.036 19.5336 33.975 23.7384 30.5568 27.3456C30.2616 27.6588 29.934 27.9846 29.5758 28.3266L29.5308 28.3716C25.587 32.1084 20.8278 34.3764 16.326 35.0226C11.7324 35.6814 7.38357 34.6608 4.36857 31.806C4.22097 31.6656 4.07517 31.5198 3.93837 31.374C1.29597 28.584 0.332972 24.7338 0.916172 20.6604C1.48857 16.6788 3.54956 12.474 6.96596 8.8668C7.26116 8.5554 7.58877 8.22782 7.94877 7.88762L7.99376 7.84082C10.0494 5.89322 12.3264 4.34522 14.6754 3.21662L14.6934 3.20761L14.7564 3.17701C16.8876 2.16361 19.071 1.49582 21.1986 1.19162Z" fill="white"/>
</svg>
