<svg width="27" height="49" viewBox="0 0 27 49" fill="none" xmlns="http://www.w3.org/2000/svg">
<path fill-rule="evenodd" clip-rule="evenodd" d="M21.542 45.2261C19.2726 46.2561 16.2421 46.823 13.0092 46.823C9.77649 46.823 6.74625 46.2561 4.47682 45.2261C2.51454 44.336 1.29553 43.1296 1.29553 42.0789V35.571C1.90742 36.1053 2.67634 36.5906 3.59694 37.0225C5.1522 37.752 7.09109 38.2922 9.20391 38.5848L9.91848 38.6836V20.3288L9.33753 20.2484C5.5446 19.7234 2.43826 18.3593 1.29553 16.7379V9.77884C3.59479 11.7839 7.9971 13.0552 13.0092 13.0552C18.0215 13.0552 22.424 11.7839 24.723 9.77884V42.0789C24.723 43.1296 23.5041 44.336 21.542 45.2261ZM1.29553 18.9554C1.90739 19.4896 2.67649 19.9749 3.59694 20.4067C5.00851 21.0689 6.73615 21.5751 8.62295 21.8816V36.7542C5.1582 36.1651 2.36593 34.8722 1.29553 33.3544V18.9554ZM4.47682 3.81254C6.74622 2.78273 9.77646 2.21556 13.0092 2.21556C16.2421 2.21556 19.2726 2.78273 21.542 3.81254C23.5041 4.70307 24.723 5.90927 24.723 6.96048V7.56655C23.3757 9.46851 19.0286 11.3255 13.0092 11.3255C6.99007 11.3255 2.64328 9.46856 1.29553 7.5666V6.96048C1.29553 5.90927 2.51454 4.70307 4.47682 3.81254ZM24.8052 4.10264C24.1234 3.37115 23.1658 2.72253 21.9587 2.17478C19.5587 1.08562 16.3802 0.485779 13.0092 0.485779C9.63839 0.485779 6.46005 1.08562 4.05996 2.17478C2.85286 2.72253 1.89517 3.37115 1.21343 4.10264C0.408239 4.96654 0 5.92805 0 6.96048V42.0789C0 43.1109 0.408276 44.0726 1.21346 44.9365C1.89517 45.6675 2.85286 46.3164 4.05996 46.864C6.46013 47.9532 9.63843 48.5527 13.0092 48.5527C16.3802 48.5527 19.5587 47.9532 21.9587 46.864C23.1658 46.3164 24.1234 45.6675 24.8052 44.9365C25.6106 44.0726 26.0186 43.1109 26.0186 42.0789V6.96048C26.0186 5.92805 25.6106 4.96654 24.8052 4.10264Z" fill="white"/>
<path fill-rule="evenodd" clip-rule="evenodd" d="M7.72151 6.11664C9.18953 5.82698 11.0674 5.66749 13.0093 5.66749C14.9515 5.66749 16.8292 5.82698 18.2973 6.11664C19.3477 6.32392 19.9578 6.54929 20.3039 6.72093C19.9578 6.89257 19.3477 7.11799 18.2973 7.32522C16.8292 7.61488 14.9515 7.77442 13.0093 7.77442C11.0675 7.77442 9.18956 7.61488 7.72151 7.32522C6.67106 7.11799 6.06105 6.89257 5.71507 6.72093C6.06105 6.54929 6.67106 6.32392 7.72151 6.11664ZM5.11928 8.26805C5.58052 8.5202 6.2241 8.74275 7.03222 8.92961C8.63463 9.30013 10.7574 9.5042 13.0093 9.5042C15.2613 9.5042 17.3841 9.30013 18.9865 8.92961C19.7949 8.74275 20.4382 8.5202 20.8994 8.26805C21.1604 8.12551 21.954 7.69168 21.954 6.72098C21.954 5.75023 21.1604 5.3164 20.8994 5.17386C20.4382 4.92171 19.7949 4.69911 18.9865 4.51225C17.3841 4.14173 15.2617 3.93771 13.0093 3.93771C10.7574 3.93771 8.6346 4.14173 7.03222 4.51225C6.2241 4.69911 5.58052 4.92171 5.11928 5.17386C4.85851 5.3164 4.06494 5.75023 4.06494 6.72098C4.06494 7.69168 4.85851 8.12551 5.11928 8.26805Z" fill="white"/>
</svg>
