<svg width="33" height="36" viewBox="0 0 33 36" fill="none" xmlns="http://www.w3.org/2000/svg">
<g clip-path="url(#clip0)">
<path d="M20.9925 36H9.50897C9.18492 36 8.92163 35.7367 8.92163 35.4126C8.92163 35.0886 9.18492 34.8253 9.50897 34.8253H20.4254C20.3849 34.5114 20.2533 34.1974 20.0609 33.9443C19.8685 33.7012 19.5242 33.3974 18.9469 33.3468H16.9014C16.5773 33.3468 16.314 33.0835 16.314 32.7595C16.314 32.4354 16.5773 32.1721 16.9014 32.1721H18.9976C19.828 32.2329 20.5166 32.6076 20.9925 33.2152C21.4887 33.8531 21.7115 34.7341 21.5799 35.4936C21.5292 35.7974 21.2862 36 20.9925 36Z" fill="white"/>
<path d="M16.7292 33.2659C16.5976 33.2659 16.4659 33.2254 16.3545 33.1343C16.1014 32.9317 16.071 32.557 16.2735 32.314L17.5292 30.795C19.0685 29.033 19.4836 27.3115 18.7545 25.8229C17.9849 24.2431 16.1216 23.3419 14.8457 23.4026C13.8127 23.4532 12.952 23.7874 12.2836 24.3748C12.0406 24.5874 11.676 24.5672 11.4532 24.3241C11.2406 24.0811 11.2608 23.7165 11.5039 23.4937C12.1013 22.9672 13.1646 22.3089 14.7748 22.2279C16.4558 22.1267 18.8052 23.2608 19.7976 25.3064C20.3444 26.4203 20.8811 28.7191 18.4102 31.5545L17.1647 33.0634C17.0634 33.195 16.8912 33.2659 16.7292 33.2659Z" fill="white"/>
<path d="M9.79234 35.9899C7.67589 35.9899 4.03032 35.0481 3.53411 31.3418C3.18981 28.7696 3.73664 26.7747 4.18221 25.1645C4.33411 24.6177 4.47589 24.1013 4.56702 23.6152C5.22525 20.081 2.02525 17.6506 1.02272 16.9924C0.749304 16.8101 0.678417 16.4456 0.860696 16.1823C1.04297 15.9088 1.40753 15.838 1.67082 16.0202C2.82525 16.7797 6.51133 19.5949 5.72146 23.838C5.62019 24.3645 5.46829 24.9114 5.31639 25.4785C4.88095 27.0582 4.38475 28.8506 4.69867 31.1899C5.21513 35.0076 9.86323 34.8253 10.0658 34.8152C10.3797 34.8051 10.6632 35.0481 10.6835 35.3721C10.7037 35.6962 10.4506 35.9696 10.1265 35.9899C10.005 35.9797 9.90373 35.9899 9.79234 35.9899Z" fill="white"/>
<path d="M19.5951 9.80252C19.5647 9.80252 19.5343 9.80252 19.5141 9.79239C19.19 9.74176 18.9774 9.44809 19.0179 9.12404C20.2736 0.455685 25.9951 0.0101152 26.2382 -0.010138C26.4002 -0.0202646 26.5521 0.0404949 26.6736 0.151887C26.7951 0.26328 26.8559 0.415178 26.8559 0.577204V3.7367C26.8559 4.06075 26.5926 4.32404 26.2685 4.32404C25.9445 4.32404 25.6812 4.06075 25.6812 3.7367V1.28606C24.304 1.66075 21.0635 3.16961 20.1723 9.29619C20.1318 9.58986 19.8786 9.80252 19.5951 9.80252Z" fill="white"/>
<path d="M26.8255 12.8708C26.5217 12.8708 26.2686 12.6379 26.2382 12.324C26.1876 11.5848 26.7648 10.8658 27.0078 10.5822C27.6053 9.91388 28.3344 9.49869 28.9622 9.47844C29.1749 9.46831 29.4078 9.50882 29.6508 9.55945C30.38 9.6911 30.8458 9.7316 31.1901 9.2354C31.8686 8.21262 31.8281 7.46325 31.7572 7.15945C31.2914 6.85565 30.2382 6.0354 29.7116 4.54679C29.3977 3.64553 27.3622 3.31135 26.4205 3.2911C26.0964 3.28097 25.8433 3.01768 25.8433 2.69363C25.8534 2.36958 26.1167 2.09616 26.4407 2.11641C26.8154 2.12654 30.147 2.24806 30.8154 4.15186C31.3217 5.62021 32.4964 6.23793 32.5065 6.23793C32.6179 6.29869 32.7192 6.38983 32.7698 6.51135C32.8002 6.57211 33.4179 7.95945 32.1521 9.86325C31.3622 11.0481 30.1065 10.8151 29.4382 10.6936C29.266 10.6632 29.0736 10.6329 29.0027 10.6329C28.7597 10.643 28.2939 10.886 27.8787 11.3417C27.5141 11.7468 27.3926 12.081 27.4028 12.2126C27.423 12.5367 27.18 12.8101 26.8559 12.8405C26.8559 12.8708 26.8458 12.8708 26.8255 12.8708Z" fill="white"/>
<path d="M24.0406 33.3873C23.7165 33.3873 23.4533 33.124 23.4533 32.8C23.4431 29.6101 23.6355 25.6607 24.6077 25.0126L24.6887 24.9519C27.9495 22.8455 27.433 18.724 26.4203 15.6455C26.0659 14.5519 26.1165 13.1139 26.2381 12.1114C26.2786 11.7873 26.5621 11.5544 26.8862 11.5949C27.2102 11.6354 27.4431 11.919 27.4026 12.243C27.2609 13.5088 27.3115 14.5924 27.5343 15.2911C29.1647 20.2734 28.4052 23.9595 25.3267 25.9443L25.2558 25.9949C24.8811 26.4405 24.6077 29.8835 24.6178 32.8C24.6279 33.124 24.3646 33.3873 24.0406 33.3873Z" fill="white"/>
<path d="M28.1619 36H24.2226C23.8986 36 23.6353 35.7367 23.6353 35.4126C23.6353 35.0886 23.8986 34.8253 24.2226 34.8253H27.5948C27.5543 34.5114 27.4227 34.1974 27.2302 33.9443C27.0378 33.7012 26.6935 33.3974 26.1163 33.3468H24.0707C23.7467 33.3468 23.4834 33.0835 23.4834 32.7595C23.4834 32.4354 23.7467 32.1721 24.0707 32.1721H26.167C26.9973 32.2329 27.6859 32.6076 28.1518 33.2152C28.648 33.8531 28.8708 34.7341 28.7391 35.4936C28.6885 35.7974 28.4454 36 28.1619 36Z" fill="white"/>
<path d="M7.56454 30.0456C7.27086 30.0456 7.00757 29.8228 6.98732 29.519C6.64302 25.8937 6.59238 21.6001 8.94175 17.2963C9.2253 16.7798 9.51897 16.2836 9.84302 15.7975C12.5671 11.6861 16.9924 9.06335 21.1443 9.05322C21.4683 9.05322 21.7316 9.31651 21.7316 9.64056C21.7316 9.96461 21.4683 10.2279 21.1443 10.2279C21.1342 10.2279 21.1139 10.2279 21.1038 10.2279C17.3569 10.2279 13.3266 12.6684 10.8253 16.4456C10.5215 16.9013 10.238 17.3671 9.97466 17.8532C7.78732 21.8836 7.82783 25.9545 8.162 29.4077C8.19238 29.7317 7.95947 30.0153 7.63542 30.0456C7.59492 30.0456 7.57466 30.0456 7.56454 30.0456Z" fill="white"/>
<path d="M6.71396 19.2C6.47092 19.2 6.23801 19.0481 6.157 18.795C5.47852 16.7089 3.93928 15.5443 2.77472 14.9469C2.27852 14.6937 1.65067 14.5215 1.34687 14.8152C1.18484 14.9772 1.16459 15.0988 1.17472 15.1798C1.21522 15.6051 1.83295 16.162 2.12662 16.3646C2.38991 16.5469 2.46079 16.9114 2.27852 17.1747C2.09624 17.438 1.73168 17.5089 1.46839 17.3266C1.32662 17.2456 0.1013 16.3848 0.0101612 15.2912C-0.0202185 14.957 0.0405409 14.4507 0.526617 13.9747C1.16459 13.357 2.1975 13.3266 3.31143 13.9038C4.67852 14.6127 6.47092 15.9696 7.27092 18.4304C7.37219 18.7342 7.20003 19.0684 6.89624 19.1696C6.83548 19.1899 6.77472 19.2 6.71396 19.2Z" fill="white"/>
</g>
<defs>
<clipPath id="clip0">
<rect width="32.962" height="36" fill="white"/>
</clipPath>
</defs>
</svg>
