<svg width="36" height="36" viewBox="0 0 36 36" fill="none" xmlns="http://www.w3.org/2000/svg">
<g clip-path="url(#clip0)">
<path fill-rule="evenodd" clip-rule="evenodd" d="M10.7729 30.5694C12.0473 30.4596 13.4981 30.1194 14.5601 29.322C15.2441 28.809 15.7733 28.08 15.9749 27.0612C15.2333 27.135 14.5097 27.297 13.8473 27.5418C13.7285 27.5958 13.6097 27.6426 13.4945 27.6822C12.1463 28.2654 11.1059 29.2266 10.7729 30.5694ZM30.4721 10.3014V2.6964C30.4721 2.1978 30.8771 1.79458 31.3721 1.79458C31.8707 1.79458 32.2739 2.1978 32.2739 2.6964V9.5328C33.0947 9.2916 33.9983 9.16199 34.9739 9.16199C35.4725 9.16199 35.8757 9.5652 35.8757 10.0638C35.8757 11.7018 35.3789 13.1382 34.6715 14.2776C34.6121 14.3712 34.5527 14.4648 34.4915 14.5548C34.6498 14.5476 34.8119 14.544 34.9739 14.544C35.4725 14.544 35.8757 14.9472 35.8757 15.444C35.8757 17.0838 35.3789 18.5202 34.6715 19.6596L34.5725 19.8144C34.7057 19.809 34.8407 19.8054 34.9739 19.8054C35.4725 19.8054 35.8757 20.2104 35.8757 20.7072C35.8757 22.3452 35.3789 23.7816 34.6715 24.921C34.6085 25.0236 34.5437 25.1226 34.4771 25.2198C34.6427 25.2126 34.8083 25.209 34.9739 25.209C35.4725 25.209 35.8757 25.614 35.8757 26.1108C35.8757 28.3014 34.9541 29.7774 33.6473 30.7566C32.1911 31.8492 30.2687 32.2722 28.6721 32.382V35.1162C28.6721 35.613 28.2671 36.0162 27.7703 36.0162C27.2735 36.0162 26.8703 35.613 26.8703 35.1162V32.3838C25.2719 32.274 23.3494 31.8492 21.8932 30.7566C20.5864 29.7774 19.6649 28.3014 19.6649 26.1108C19.6649 25.614 20.0699 25.209 20.5667 25.209C20.7323 25.209 20.8979 25.2126 21.0653 25.2198C20.9987 25.1226 20.9339 25.0236 20.8691 24.921C20.1617 23.7816 19.6649 22.3452 19.6649 20.7072C19.6649 20.2104 20.0699 19.8054 20.5667 19.8054C20.7017 19.8054 20.8348 19.809 20.9681 19.8144L20.8691 19.6596C20.1617 18.5202 19.6649 17.0838 19.6649 15.444C19.6649 14.9472 20.0699 14.544 20.5667 14.544C20.7286 14.544 20.8907 14.5476 21.0509 14.5548C20.9879 14.4648 20.9285 14.3712 20.8691 14.2776C20.1617 13.1382 19.6649 11.7018 19.6649 10.0638C19.6649 9.5652 20.0699 9.16199 20.5667 9.16199C21.5422 9.16199 22.4459 9.2916 23.2666 9.5328V2.6964C23.2666 2.1978 23.6716 1.79458 24.1684 1.79458C24.6652 1.79458 25.0684 2.1978 25.0684 2.6964V10.3014C25.5328 10.5732 25.9559 10.8864 26.3357 11.2356C26.5247 11.4102 26.7029 11.592 26.8703 11.781V0.894583C26.8703 0.397783 27.2735 -0.00720215 27.7703 -0.00720215C28.2671 -0.00720215 28.6721 0.397783 28.6721 0.894583V11.781C28.8377 11.5902 29.0159 11.4084 29.2048 11.2356C29.5847 10.8864 30.0095 10.5732 30.4721 10.3014ZM30.4019 15.7248C30.5117 15.5502 30.6808 15.4116 30.8932 15.345C31.5917 15.1236 32.4773 14.4108 33.1451 13.3344C33.5501 12.681 33.8651 11.8998 34.0019 11.0178C32.5169 11.187 31.3073 11.745 30.4217 12.5586C29.3093 13.5792 28.6901 15.0192 28.6721 16.6014V17.163C28.8377 16.9722 29.0159 16.7904 29.2048 16.6176C29.5667 16.2864 29.9663 15.9876 30.4019 15.7248ZM30.6611 20.8386C30.7133 20.8044 30.7691 20.7738 30.8267 20.7504C31.0373 20.6424 31.2533 20.5434 31.4747 20.4534C32.0417 20.106 32.6519 19.5102 33.1451 18.7164C33.5501 18.063 33.8651 17.2818 34.0019 16.3998C32.5169 16.569 31.3073 17.127 30.4217 17.9406C29.3093 18.963 28.6901 20.403 28.6721 21.9834V22.4244C28.8377 22.2354 29.0159 22.0518 29.2048 21.879C29.6369 21.483 30.1229 21.1338 30.6611 20.8386ZM32.2253 22.0914C31.9913 22.2246 31.7609 22.329 31.5413 22.4082C31.1237 22.6332 30.7511 22.8996 30.4217 23.202C29.3093 24.2244 28.6901 25.6644 28.6721 27.2448V27.3708C29.3813 26.7156 30.2615 26.208 31.2317 25.8498C31.8617 25.5366 32.5799 24.8886 33.1451 23.9778C33.5501 23.3244 33.8651 22.545 34.0019 21.6612C33.3557 21.735 32.7617 21.8826 32.2253 22.0914ZM31.8581 27.5418C31.7393 27.5958 31.6222 27.6426 31.5052 27.6822C30.157 28.2654 29.1167 29.2266 28.7837 30.5694C30.0581 30.4596 31.5089 30.1194 32.5709 29.322C33.2567 28.809 33.7841 28.08 33.9857 27.0612C33.2441 27.135 32.5205 27.297 31.8581 27.5418ZM26.8703 27.3708V27.2448C26.8505 25.6644 26.2331 24.2244 25.1207 23.202C24.7913 22.8996 24.4169 22.6332 24.0011 22.4082C23.7797 22.329 23.5493 22.2246 23.3153 22.0914C22.7789 21.8826 22.1849 21.735 21.5405 21.6612C21.6755 22.545 21.9923 23.3244 22.3955 23.9778C22.9607 24.8868 23.6789 25.5366 24.3089 25.8498C25.2809 26.208 26.1593 26.7156 26.8703 27.3708ZM26.8703 22.4244V21.9834C26.8505 20.403 26.2331 18.963 25.1207 17.9406C24.2351 17.127 23.0237 16.569 21.5405 16.3998C21.6755 17.2818 21.9923 18.063 22.3955 18.7164C22.8887 19.5102 23.4988 20.106 24.0659 20.4534C24.2891 20.5434 24.5051 20.6424 24.7139 20.7504C24.7733 20.7738 24.8272 20.8044 24.8794 20.8386C25.4177 21.1338 25.9037 21.483 26.3357 21.879C26.5247 22.0536 26.7029 22.2354 26.8703 22.4244ZM26.8703 17.163V16.6014C26.8505 15.0192 26.2331 13.5792 25.1207 12.5586C24.2351 11.745 23.0237 11.187 21.5405 11.0178C21.6755 11.8998 21.9923 12.681 22.3955 13.3344C23.0651 14.4108 23.9507 15.1236 24.6473 15.345C24.8597 15.4116 25.0289 15.5502 25.1387 15.7248C25.5761 15.9876 25.9757 16.2864 26.3357 16.6176C26.5247 16.7904 26.7029 16.974 26.8703 17.163ZM24.0353 27.6822C23.9201 27.6426 23.8013 27.5958 23.6825 27.5418C23.0201 27.297 22.2983 27.135 21.5567 27.0612C21.7565 28.08 22.2857 28.809 22.9697 29.322C24.0317 30.1194 25.4825 30.4596 26.7569 30.5694C26.4257 29.2266 25.3835 28.2654 24.0353 27.6822ZM12.4613 10.3014V2.6964C12.4613 2.1978 12.8645 1.79458 13.3613 1.79458C13.8581 1.79458 14.2613 2.1978 14.2613 2.6964V9.5328C15.0839 9.2916 15.9875 9.16199 16.9631 9.16199C17.4617 9.16199 17.8649 9.5652 17.8649 10.0638C17.8649 11.7018 17.3663 13.1382 16.6607 14.2776C16.6013 14.3712 16.5418 14.4648 16.4806 14.5548C16.639 14.5476 16.8011 14.544 16.9631 14.544C17.4617 14.544 17.8649 14.9472 17.8649 15.444C17.8649 17.0838 17.3663 18.5202 16.6607 19.6596L16.5617 19.8144C16.6949 19.809 16.8281 19.8054 16.9631 19.8054C17.4617 19.8054 17.8649 20.2104 17.8649 20.7072C17.8649 22.3452 17.3663 23.7816 16.6607 24.921C16.5977 25.0236 16.5329 25.1226 16.4663 25.2198C16.6319 25.2126 16.7975 25.209 16.9631 25.209C17.4617 25.209 17.8649 25.614 17.8649 26.1108C17.8649 28.3014 16.9433 29.7774 15.6365 30.7566C14.1803 31.8492 12.2579 32.2722 10.6595 32.382V35.1162C10.6595 35.613 10.2563 36.0162 9.75945 36.0162C9.26265 36.0162 8.85945 35.613 8.85945 35.1162V32.3838C7.26105 32.274 5.33865 31.8492 3.88065 30.7566C2.57565 29.7774 1.65405 28.3014 1.65405 26.1108C1.65405 25.614 2.05725 25.209 2.55585 25.209C2.72145 25.209 2.88705 25.2126 3.05445 25.2198C2.98605 25.1226 2.92125 25.0236 2.85825 24.921C2.15085 23.7816 1.65405 22.3452 1.65405 20.7072C1.65405 20.2104 2.05725 19.8054 2.55585 19.8054C2.69085 19.8054 2.82405 19.809 2.95725 19.8144L2.85825 19.6596C2.15085 18.5202 1.65405 17.0838 1.65405 15.444C1.65405 14.9472 2.05725 14.544 2.55585 14.544C2.71785 14.544 2.87985 14.5476 3.03825 14.5548C2.97705 14.4648 2.91585 14.3712 2.85825 14.2776C2.15085 13.1382 1.65405 11.7018 1.65405 10.0638C1.65405 9.5652 2.05725 9.16199 2.55585 9.16199C3.53145 9.16199 4.43505 9.2916 5.25585 9.5328V2.6964C5.25585 2.1978 5.65905 1.79458 6.15585 1.79458C6.65265 1.79458 7.05765 2.1978 7.05765 2.6964V10.3014C7.52205 10.5732 7.94325 10.8864 8.32485 11.2356C8.51385 11.4102 8.69205 11.592 8.85945 11.781V0.894583C8.85945 0.397783 9.26265 -0.00720215 9.75945 -0.00720215C10.2563 -0.00720215 10.6595 0.397783 10.6595 0.894583V11.781C10.8269 11.5902 11.0051 11.4084 11.1941 11.2356C11.5739 10.8864 11.9969 10.5732 12.4613 10.3014ZM12.3911 15.7248C12.5008 15.5502 12.6701 15.4116 12.8825 15.345C13.5791 15.1236 14.4647 14.4108 15.1343 13.3344C15.5375 12.681 15.8542 11.8998 15.991 11.0178C14.5061 11.187 13.2947 11.745 12.4109 12.5586C11.2967 13.5792 10.6793 15.0192 10.6595 16.6014V17.163C10.8269 16.9722 11.0051 16.7904 11.1941 16.6176C11.5559 16.2864 11.9536 15.9876 12.3911 15.7248ZM12.6503 20.8386C12.7007 20.8044 12.7564 20.7738 12.8159 20.7504C13.0247 20.6424 13.2407 20.5434 13.4639 20.4534C14.0309 20.106 14.6411 19.5102 15.1343 18.7164C15.5375 18.063 15.8542 17.2818 15.991 16.3998C14.5061 16.569 13.2947 17.127 12.4109 17.9406C11.2967 18.963 10.6793 20.403 10.6595 21.9834V22.4244C10.8269 22.2354 11.0051 22.0518 11.1941 21.879C11.6261 21.483 12.1121 21.1338 12.6503 20.8386ZM14.2145 22.0914C13.9805 22.2246 13.75 22.329 13.5287 22.4082C13.1129 22.6332 12.7385 22.8996 12.4109 23.202C11.2967 24.2244 10.6793 25.6644 10.6595 27.2448V27.3708C11.3705 26.7156 12.2489 26.208 13.2209 25.8498C13.8509 25.5366 14.5691 24.8886 15.1343 23.9778C15.5375 23.3244 15.8542 22.545 15.991 21.6612C15.3449 21.735 14.7509 21.8826 14.2145 22.0914ZM8.85945 16.677V16.6014C8.83965 15.0192 8.22225 13.5792 7.10805 12.5586C6.22245 11.745 5.01285 11.187 3.52785 11.0178C3.66465 11.8998 3.97965 12.681 4.38465 13.3344C5.05425 14.4108 5.93805 15.1236 6.63645 15.345C6.84705 15.4116 7.01805 15.5502 7.12785 15.7248C7.56345 15.9876 7.96305 16.2864 8.32485 16.6176C8.51385 16.7904 8.69205 16.974 8.85945 17.163V16.677ZM8.85945 22.059V21.9834C8.83965 20.403 8.22225 18.963 7.10805 17.9406C6.22245 17.127 5.01285 16.569 3.52785 16.3998C3.66465 17.2818 3.97965 18.063 4.38465 18.7164C4.87605 19.5102 5.48625 20.106 6.05325 20.4534C6.27645 20.5434 6.49245 20.6424 6.70125 20.7504C6.76065 20.7738 6.81645 20.8044 6.86865 20.8386C7.40685 21.1338 7.89285 21.483 8.32485 21.879C8.51385 22.0536 8.69205 22.2354 8.85945 22.4244V22.059ZM8.85945 27.3708V27.2448C8.83965 25.6644 8.22225 24.2244 7.10805 23.202C6.77865 22.8996 6.40605 22.6332 5.98845 22.4082C5.76705 22.329 5.53845 22.2246 5.30445 22.0914C4.76625 21.8826 4.17225 21.735 3.52785 21.6612C3.66465 22.545 3.97965 23.3244 4.38465 23.9778C4.94985 24.8868 5.66805 25.5366 6.29805 25.8498C7.26825 26.208 8.14845 26.7156 8.85945 27.3708ZM6.02445 27.6822C5.90925 27.6426 5.79045 27.5958 5.67165 27.5418C5.00925 27.297 4.28565 27.135 3.54405 27.0612C3.74565 28.08 4.27305 28.809 4.95885 29.322C6.02085 30.1194 7.47165 30.4596 8.74605 30.5694C8.41305 29.2266 7.37265 28.2654 6.02445 27.6822Z" fill="white"/>
</g>
<defs>
<clipPath id="clip0">
<rect width="36" height="36" fill="white"/>
</clipPath>
</defs>
</svg>
