<svg width="41" height="36" viewBox="0 0 41 36" fill="none" xmlns="http://www.w3.org/2000/svg">
<g clip-path="url(#clip0)">
<path d="M12.0435 20.2174V21.6088C12.0435 22.0435 12.3913 22.4348 12.8695 22.4348C13.3043 22.4348 13.6956 22.087 13.6956 21.6088V20.2174C13.6956 19.7827 13.3478 19.3914 12.8695 19.3914C12.3913 19.4348 12.0435 19.7827 12.0435 20.2174Z" fill="white"/>
<path d="M27.6086 22.4348C28.0433 22.4348 28.4346 22.087 28.4346 21.6088V20.2174C28.4346 19.7827 28.0868 19.3914 27.6086 19.3914C27.1303 19.3914 26.7825 19.7392 26.7825 20.2174V21.6088C26.7825 22.087 27.1738 22.4348 27.6086 22.4348Z" fill="white"/>
<path d="M4.52163 24.5217C6.65207 31.3043 12.9999 36 20.1738 36C27.3477 36 33.6955 31.3043 35.826 24.5217C37.0868 24.3913 38.2173 23.8261 39.0868 22.913C40.0434 21.8696 40.4781 20.4348 40.3042 19.0435C40.0434 16.7826 38.2173 14.913 35.9564 14.6957C35.9129 14.6957 35.8695 14.6957 35.826 14.6957C34.826 11.5652 32.8695 8.73913 30.2608 6.69565C29.9129 6.43478 29.3912 6.47826 29.1303 6.82609C28.8695 7.17391 28.9129 7.69565 29.2608 7.95652C31.5216 9.69565 33.2173 12.1304 34.1303 14.8261C33.3477 15.0435 32.6521 15.3913 32.0434 15.9565C31.6955 16.2609 31.6955 16.7826 31.9999 17.1304C32.1738 17.3043 32.3912 17.3913 32.6086 17.3913C32.7825 17.3913 32.9999 17.3043 33.1738 17.1739C33.739 16.6522 34.4781 16.3478 35.2608 16.3478C35.4781 16.3478 35.6086 16.3478 35.7825 16.3478C37.3042 16.5217 38.5216 17.7391 38.6955 19.2609C38.7825 20.2174 38.5216 21.1304 37.8694 21.8696C37.2608 22.5652 36.3477 22.9565 35.3912 22.9565H35.3477C34.9564 22.913 34.5651 23.1304 34.4347 23.5652C32.6955 29.9565 26.826 34.4348 20.1738 34.4348C13.5216 34.4348 7.69555 29.9565 5.91294 23.5652C5.82598 23.1739 5.43468 22.913 5.04337 22.9565C4.99989 22.9565 4.99989 22.9565 4.95642 22.9565C3.99989 22.9565 3.13033 22.5652 2.47815 21.8696C1.82598 21.1739 1.56511 20.2174 1.65207 19.2609C1.82598 17.7391 3.04337 16.5217 4.56511 16.3478C4.69555 16.3478 4.86946 16.3478 5.08685 16.3478C5.86946 16.3913 6.60859 16.6957 7.17381 17.1739C7.34772 17.3043 7.52163 17.3913 7.73902 17.3913C7.95641 17.3913 8.17381 17.3043 8.34772 17.1304C8.65207 16.7826 8.60859 16.2609 8.30424 15.9565C7.69555 15.4348 6.99989 15.0435 6.21728 14.8261C7.69555 10.5217 11.1303 7.08696 15.4347 5.65217C15.7825 7.6087 17.4347 9.08696 19.4782 9.08696C21.3912 9.08696 22.6955 7.78261 22.6955 5.86957C22.6955 4.26087 21.3912 2.95652 19.7825 2.95652C19.3477 2.95652 18.9564 3.30435 18.9564 3.78261C18.9564 4.21739 19.3042 4.6087 19.7825 4.6087C20.4782 4.6087 21.0868 5.17391 21.0868 5.91304C21.0868 6.91304 20.5216 7.47826 19.5216 7.47826C18.1738 7.47826 17.0434 6.34783 17.0434 5C17.0434 4.91304 17.0434 4.78261 17.0434 4.69565C17.2173 3 18.6086 1.73913 20.3042 1.73913C22.6955 1.73913 24.6086 3.69565 24.6086 6.04348C24.6086 9.13043 22.0868 11.6522 18.9999 11.6522C18.5651 11.6522 18.1738 12 18.1738 12.4783C18.1738 12.913 18.5216 13.3043 18.9999 13.3043C22.9999 13.3043 26.2608 10.0435 26.2608 6.04348C26.2173 2.65217 23.5216 0 20.2608 0C17.9129 0 15.9129 1.65217 15.4347 3.91304C10.2608 5.47826 6.13033 9.52174 4.52163 14.6957C4.47815 14.6957 4.43468 14.6957 4.3912 14.6957C2.13033 14.9565 0.260764 16.7826 0.0433725 19.0435C-0.13054 20.4348 0.34772 21.8696 1.26076 22.913C2.08685 23.8261 3.26076 24.4348 4.52163 24.5217Z" fill="white"/>
<path d="M23.5217 25.8696C22.7826 27 21.5217 27.6522 20.1739 27.6522C18.826 27.6522 17.5652 27 16.826 25.8696C16.5652 25.4783 16.0434 25.3913 15.6956 25.6522C15.3043 25.913 15.2173 26.4348 15.4782 26.7826C16.5217 28.3478 18.3043 29.2609 20.1739 29.2609C22.0434 29.2609 23.826 28.3478 24.8695 26.7826C25.1304 26.3913 25.0434 25.913 24.6521 25.6522C24.2608 25.3913 23.7391 25.4783 23.5217 25.8696Z" fill="white"/>
</g>
<defs>
<clipPath id="clip0">
<rect width="40.3043" height="36" fill="white"/>
</clipPath>
</defs>
</svg>
