<svg width="38" height="36" viewBox="0 0 38 36" fill="none" xmlns="http://www.w3.org/2000/svg">
<path fill-rule="evenodd" clip-rule="evenodd" d="M1.88833 13.6457H31.5775L10.6975 2.51085C8.0767 3.62685 5.86629 5.32245 4.31109 7.39065C2.93409 9.22305 2.06833 11.3561 1.88833 13.6457ZM35.5213 13.7159C35.8453 13.8527 36.0739 14.1731 36.0739 14.5475V20.4335C36.0739 20.9303 35.6707 21.3335 35.1739 21.3335C34.9885 21.3335 34.8175 21.2777 34.6753 21.1841C34.4899 21.0815 34.2865 20.9987 34.0741 20.9429C33.8545 20.8835 33.6187 20.8529 33.3721 20.8529C32.6269 20.8529 31.9501 21.1553 31.4623 21.6449C30.9727 22.1327 30.6703 22.8095 30.6703 23.5547C30.6703 24.3017 30.9727 24.9785 31.4587 25.4645C31.9501 25.9541 32.6269 26.2565 33.3721 26.2565C33.6187 26.2565 33.8545 26.224 34.0741 26.1664C34.3063 26.1052 34.5241 26.0117 34.7239 25.8983C35.1523 25.6499 35.7013 25.7957 35.9497 26.2241C36.0325 26.3663 36.0703 26.5211 36.0703 26.6741L36.0739 34.3601C36.0739 34.8587 35.6707 35.2619 35.1739 35.2619H0.952295C0.453695 35.2619 0.0505371 34.8587 0.0505371 34.3601V14.5475C0.0505371 11.5181 1.0873 8.69386 2.8765 6.31426C4.7035 3.88426 7.31893 1.92045 10.4149 0.687447C10.6687 0.586647 10.9423 0.610066 11.1673 0.728866L35.5213 13.7159ZM34.2721 15.4475H1.85229V33.4601H34.2721V27.9664C33.9787 28.0258 33.6763 28.0565 33.3721 28.0565C32.1283 28.0565 31.0033 27.5525 30.1879 26.7389C29.3743 25.9199 28.8685 24.7949 28.8685 23.5547C28.8685 22.3109 29.3725 21.184 30.1879 20.3704C31.0033 19.555 32.1283 19.0511 33.3721 19.0511C33.6763 19.0511 33.9787 19.0817 34.2721 19.1429V15.4475ZM8.15592 19.0529C8.90112 19.0529 9.57793 19.3553 10.0657 19.8449L10.1179 19.9025C10.5751 20.3867 10.8577 21.0401 10.8577 21.7547C10.8577 22.4981 10.5535 23.1731 10.0639 23.6627C9.57792 24.1541 8.90112 24.4565 8.15592 24.4565C7.41072 24.4565 6.73391 24.1541 6.24611 23.6645L6.19393 23.6069C5.73673 23.1227 5.45411 22.4693 5.45411 21.7547C5.45411 21.0113 5.75832 20.3363 6.24792 19.8467C6.73392 19.3553 7.41072 19.0529 8.15592 19.0529ZM8.79313 21.1175C8.63113 20.9555 8.40432 20.8547 8.15592 20.8547C7.90752 20.8547 7.68251 20.9555 7.51871 21.1175C7.35491 21.2777 7.25592 21.5045 7.25592 21.7547C7.25592 21.9887 7.34229 22.1993 7.48449 22.3577L7.51871 22.3901C7.68251 22.5539 7.90752 22.6547 8.15592 22.6547C8.40432 22.6547 8.63113 22.5539 8.79313 22.3901C8.95693 22.2299 9.05592 22.0049 9.05592 21.7547C9.05592 21.5207 8.96949 21.3101 8.82729 21.1517L8.79313 21.1175ZM22.5649 17.2493C23.3083 17.2493 23.9851 17.5553 24.4729 18.0449C24.9643 18.5309 25.2667 19.2059 25.2667 19.9529C25.2667 20.6945 24.9643 21.3695 24.4747 21.8591C23.9815 22.3505 23.3065 22.6529 22.5649 22.6529C21.8197 22.6529 21.1429 22.3505 20.6551 21.8627L20.6029 21.8051C20.1457 21.3209 19.8631 20.6675 19.8631 19.9529C19.8631 19.2059 20.1655 18.5309 20.6551 18.0413C21.1429 17.5517 21.8197 17.2493 22.5649 17.2493ZM23.2021 19.3139C23.0419 19.1519 22.8151 19.0511 22.5649 19.0511C22.3165 19.0511 22.0915 19.1536 21.9277 19.3156C21.7657 19.4776 21.6649 19.7027 21.6649 19.9529C21.6649 20.1851 21.7513 20.3975 21.8935 20.5559L21.9277 20.5882C22.0915 20.7502 22.3165 20.8529 22.5649 20.8529C22.8115 20.8529 23.0347 20.7557 23.1949 20.5991L23.2021 20.5919C23.3659 20.4281 23.4649 20.2031 23.4649 19.9529C23.4649 19.7027 23.3641 19.4777 23.2021 19.3139ZM16.2613 24.4565C17.2549 24.4565 18.1567 24.8597 18.8083 25.5113C19.4599 26.1629 19.8631 27.0629 19.8631 28.0583C19.8631 29.0519 19.4599 29.9537 18.8083 30.6053C18.1567 31.2569 17.2549 31.6601 16.2613 31.6601C15.2659 31.6601 14.3659 31.2569 13.7143 30.6053C13.0627 29.9537 12.6595 29.0519 12.6595 28.0583C12.6595 27.0629 13.0627 26.1629 13.7143 25.5113C14.3659 24.8597 15.2659 24.4565 16.2613 24.4565ZM17.5339 26.7839C17.2099 26.4599 16.7581 26.2565 16.2613 26.2565C15.7645 26.2565 15.3127 26.4599 14.9887 26.7839C14.6629 27.1097 14.4595 27.5615 14.4595 28.0583C14.4595 28.5551 14.6629 29.0051 14.9887 29.3309C15.3127 29.6567 15.7645 29.8583 16.2613 29.8583C16.7581 29.8583 17.2099 29.6567 17.5339 29.3309C17.8597 29.0051 18.0613 28.5551 18.0613 28.0583C18.0613 27.5615 17.8597 27.1097 17.5339 26.7839Z" fill="white"/>
</svg>
