<svg width="33" height="36" viewBox="0 0 33 36" fill="none" xmlns="http://www.w3.org/2000/svg">
<g clip-path="url(#clip0)">
<path d="M23.2813 33.3724C23.2708 33.3724 23.2708 33.3724 23.2603 33.3724C22.9253 33.3619 22.6636 33.0793 22.6741 32.7443C22.7893 29.4782 23.1347 25.4585 24.0978 24.8094C24.7154 24.4012 27.6988 21.983 25.4377 15.0845C24.9038 13.4619 25.1969 11.7661 25.3644 10.7612L25.3958 10.5727C25.5947 9.35843 26.7881 9.33749 27.7407 9.31655C28.0338 9.30608 28.3478 9.30608 28.6619 9.26421C29.4261 9.18047 30.117 8.87689 30.5671 8.63612C30.6613 8.58378 30.7241 8.4791 30.7346 8.36395L30.8497 5.28631C29.9495 5.24444 28.306 5.09788 27.1963 4.60588C26.3275 4.21856 25.6366 3.5486 24.9562 2.8891C24.4118 2.36569 23.8989 1.86322 23.3755 1.60152C22.2658 1.04671 20.0257 1.08858 19.1568 1.51777C18.7799 1.7062 17.8378 2.57506 17.5761 3.10893C16.8119 4.63729 16.1629 7.85101 16.5607 9.02344C16.8852 9.99698 18.7695 10.2273 19.6802 10.0703C19.8372 10.0389 20.6537 9.87137 21.1353 9.04438C21.711 8.07084 21.6378 6.53202 20.9364 4.57448C20.8212 4.26043 20.9887 3.91498 21.3028 3.79983C21.6168 3.68468 21.9623 3.85217 22.0774 4.16622C22.9149 6.50062 22.9463 8.34301 22.1716 9.65153C21.4284 10.9182 20.2246 11.2008 19.8686 11.2636C18.7276 11.4521 16.0163 11.2532 15.3987 9.4003C14.8334 7.71492 15.6814 4.16622 16.4769 2.56459C16.8538 1.81088 17.9844 0.753598 18.602 0.439553C19.764 -0.136196 22.4333 -0.209473 23.9093 0.523298C24.6002 0.868747 25.2074 1.45496 25.7936 2.02025C26.3903 2.59599 27.0079 3.20315 27.6779 3.49626C28.9969 4.08247 31.4464 4.09294 31.4674 4.09294C31.6349 4.09294 31.7919 4.15575 31.907 4.28137C32.0222 4.39652 32.085 4.56401 32.0745 4.72103L31.928 8.41629C31.907 8.96064 31.593 9.45264 31.1219 9.70387C30.5776 9.98651 29.7401 10.3529 28.7875 10.4681C28.4316 10.5099 28.0861 10.5204 27.7512 10.5204C26.8404 10.5413 26.5997 10.5937 26.5683 10.7716L26.5369 10.9601C26.3694 11.9127 26.1286 13.3573 26.5683 14.6972C29.1016 22.4227 25.5005 25.3014 24.7573 25.8039C24.3804 26.254 23.9826 29.7818 23.8779 32.7652C23.8779 33.1107 23.6058 33.3724 23.2813 33.3724Z" fill="white"/>
<path d="M5.84133 32.2732C5.56916 32.2732 5.32839 32.0848 5.25512 31.8126C5.06669 31.038 4.85733 27.2904 7.38015 22.9984C8.96084 20.3081 10.8346 18.1831 12.3421 16.4768C13.2005 15.5032 13.9437 14.6658 14.5194 13.8597C15.4511 12.5721 16.1211 10.1959 16.1211 10.1749C16.2153 9.85043 16.5398 9.662 16.8643 9.75621C17.1888 9.85043 17.3772 10.1749 17.283 10.4995C17.2516 10.6041 16.5503 13.106 15.493 14.5611C14.8858 15.409 14.0902 16.3093 13.2423 17.2724C11.693 19.0205 9.94485 21.0095 8.4165 23.6056C6.12397 27.4997 6.27053 30.881 6.42755 31.509C6.5113 31.8336 6.3124 32.1581 5.98789 32.2418C5.94601 32.2732 5.89367 32.2732 5.84133 32.2732Z" fill="white"/>
<path d="M27.3744 35.9581H23.4697C23.1348 35.9581 22.8626 35.6859 22.8626 35.3509C22.8626 35.0159 23.1348 34.7437 23.4697 34.7437H26.7777C26.7358 34.4506 26.6102 34.1471 26.4218 33.9168C26.2333 33.676 25.8984 33.3829 25.3331 33.341H23.3127C22.9777 33.341 22.7056 33.0688 22.7056 32.7339C22.7056 32.3989 22.9777 32.1267 23.3127 32.1267H25.3854C26.2124 32.1895 26.9033 32.5664 27.3744 33.1735C27.8664 33.8121 28.0967 34.6914 27.9606 35.4556C27.9187 35.7487 27.6675 35.9581 27.3744 35.9581Z" fill="white"/>
<path d="M20.1199 35.9581H6.5322C6.19722 35.9581 5.92505 35.6859 5.92505 35.3509C5.92505 35.0159 6.19722 34.7437 6.5322 34.7437H19.5337C19.4918 34.4506 19.3662 34.1471 19.1777 33.9168C18.9893 33.676 18.6543 33.3829 18.0891 33.341H16.0687C15.7337 33.341 15.4615 33.0688 15.4615 32.7339C15.4615 32.3989 15.7337 32.1267 16.0687 32.1267H18.1414C18.9684 32.1895 19.6593 32.5664 20.1303 33.1735C20.6223 33.8121 20.8526 34.6914 20.7166 35.4556C20.6642 35.7487 20.413 35.9581 20.1199 35.9581Z" fill="white"/>
<path d="M15.5768 33.2467C15.4407 33.2467 15.3046 33.2048 15.1894 33.1106C14.9277 32.9012 14.8963 32.5139 15.1057 32.2627L16.3514 30.7552C17.8693 29.0175 18.2775 27.3217 17.5657 25.8457C16.8015 24.2859 14.9591 23.3856 13.7134 23.4589C12.698 23.5113 11.8501 23.8358 11.1906 24.422C10.9394 24.6418 10.5625 24.6209 10.3322 24.3697C10.1124 24.1184 10.1333 23.7416 10.3846 23.5113C10.9812 22.9879 12.0385 22.3388 13.6402 22.2446C15.3151 22.1609 17.6495 23.281 18.6439 25.3118C19.1883 26.4214 19.7221 28.7035 17.2621 31.5299L16.0269 33.0268C15.9222 33.1734 15.7443 33.2467 15.5768 33.2467Z" fill="white"/>
<path d="M7.75697 35.9999C5.4121 35.9999 1.80058 35.0368 1.08875 31.2159C0.659556 28.8711 1.38186 26.589 1.96808 24.7466C2.24025 23.8882 2.48102 23.145 2.54382 22.5588C2.6171 21.8679 2.48102 21.3131 2.11463 20.9048C1.62263 20.3604 0.868919 20.2244 0.701428 20.2139C0.418788 20.2558 0.136148 20.0883 0.0419343 19.8056C-0.0627473 19.4916 0.104743 19.1461 0.429256 19.0415C0.80611 18.9158 1.8948 19.1357 2.67991 19.7638C3.26613 20.2348 3.93609 21.1351 3.75813 22.6844C3.68485 23.3753 3.43362 24.1813 3.14051 25.1025C2.59616 26.8193 1.9262 28.9443 2.30306 30.9856C3.08817 35.2252 8.19663 34.7751 8.40599 34.7542C8.74097 34.7123 9.03408 34.9635 9.06549 35.2985C9.09689 35.6335 8.85612 35.9266 8.52114 35.958C8.28038 35.9894 8.02914 35.9999 7.75697 35.9999Z" fill="white"/>
<path d="M5.99827 22.0145C5.67376 22.0145 5.40159 21.7528 5.39112 21.4283C5.37018 20.7583 4.76303 20.1512 4.36524 19.9523C2.74268 19.1462 1.07824 20.0779 1.0573 20.0884C0.764194 20.2559 0.397809 20.1512 0.230318 19.8685C0.0628276 19.5754 0.167509 19.209 0.45015 19.0416C0.544363 18.9892 2.7008 17.7749 4.89912 18.8741C5.55861 19.1986 6.55309 20.1512 6.59496 21.3969C6.60543 21.7319 6.34372 22.0145 6.00874 22.025C6.00874 22.0145 5.99827 22.0145 5.99827 22.0145Z" fill="white"/>
</g>
<defs>
<clipPath id="clip0">
<rect width="32.0849" height="36" fill="white"/>
</clipPath>
</defs>
</svg>
