<svg width="35" height="36" viewBox="0 0 35 36" fill="none" xmlns="http://www.w3.org/2000/svg">
<path fill-rule="evenodd" clip-rule="evenodd" d="M23.7325 6.70458C26.3365 6.70458 28.6319 9.03944 30.2999 12.372C32.0622 15.8983 33.1662 20.5989 33.1662 24.7183C33.1662 28.4554 32.2611 31.1074 30.7713 32.8937C29.0176 34.9988 26.5079 35.8663 23.7325 35.8663C20.9571 35.8663 18.4456 34.9988 16.6919 32.8937C15.9462 31.9988 15.3462 30.8846 14.9331 29.5268C14.4188 29.8217 13.8719 30.0566 13.3011 30.2383C12.2639 30.5691 11.1548 30.7217 10.0096 30.7217C7.23421 30.7217 4.72277 29.8526 2.96905 27.7492C1.48106 25.9629 0.574219 23.3091 0.574219 19.572C0.574219 15.4525 1.67991 10.7537 3.4422 7.22743C5.10849 3.89314 7.40393 1.56 10.0096 1.56C11.9314 1.56 13.6782 2.81655 15.1285 4.80855C16.2959 6.41484 17.2885 8.52856 18.0256 10.8326C19.5856 8.34171 21.5502 6.70458 23.7325 6.70458ZM14.5285 27.7629C14.3776 26.8406 14.2971 25.8274 14.2971 24.7183C14.2971 20.8354 15.2794 16.4383 16.8668 12.9943C16.1639 10.2291 15.0736 7.64741 13.7399 5.81312C12.6085 4.25655 11.3245 3.27601 10.0096 3.27601C8.13764 3.27601 6.35821 5.21654 4.96964 7.99197C3.32221 11.2868 2.2902 15.696 2.2902 19.572C2.2902 22.8806 3.04278 25.1708 4.28221 26.6571C5.66735 28.3183 7.71593 29.0057 10.0096 29.0057C10.9988 29.0057 11.9365 28.8823 12.7851 28.6114C13.4108 28.4126 13.9954 28.1331 14.5285 27.7629ZM28.7708 13.1366C27.3839 10.3628 25.6028 8.42054 23.7325 8.42054C21.8605 8.42054 20.0811 10.3628 18.6925 13.1366L18.5554 13.4177L18.5262 13.4777C16.9765 16.7314 16.0131 20.9726 16.0131 24.7183C16.0131 28.0251 16.7656 30.3171 18.0051 31.8017C19.3902 33.4646 21.4388 34.1503 23.7325 34.1503C26.0262 34.1503 28.0731 33.4646 29.4599 31.8017C30.6976 30.3171 31.4502 28.0251 31.4502 24.7183C31.4502 20.8406 30.4182 16.4314 28.7708 13.1366Z" fill="white"/>
</svg>
