<svg width="40" height="40" viewBox="0 0 40 40" fill="none" xmlns="http://www.w3.org/2000/svg">
<path d="M39.5357 19.9999C39.5357 9.31804 30.8784 0.660645 20.1965 0.660645C9.51457 0.660645 0.857178 9.31804 0.857178 19.9999C0.857178 29.6545 7.9281 37.6546 17.1747 39.105V25.5902H12.2643V19.9999H17.1747V15.7392C17.1747 10.8931 20.0605 8.21505 24.4798 8.21505C26.595 8.21505 28.8085 8.59277 28.8085 8.59277V13.352H26.3684C23.9661 13.352 23.2182 14.8441 23.2182 16.3738V19.9999H28.5818L27.7244 25.5902H23.2182V39.105C32.4648 37.6546 39.5357 29.6545 39.5357 19.9999Z" fill="#1877F2"/>
<path d="M27.7244 25.5902L28.5818 20H23.2182V16.3738C23.2182 14.8441 23.9661 13.3521 26.3684 13.3521H28.8085V8.59281C28.8085 8.59281 26.595 8.21509 24.4798 8.21509C20.0605 8.21509 17.1747 10.8931 17.1747 15.7393V20H12.2643V25.5902H17.1747V39.1051C18.1605 39.26 19.1691 39.3392 20.1965 39.3392C21.2239 39.3392 22.2324 39.26 23.2182 39.1051V25.5902H27.7244Z" fill="white"/>
</svg>
