<svg width="36" height="36" viewBox="0 0 36 36" fill="none" xmlns="http://www.w3.org/2000/svg">
<path fill-rule="evenodd" clip-rule="evenodd" d="M10.5085 24.1782C10.7931 24.1679 11.076 24.149 11.3588 24.125C16.6594 23.6725 22.0251 21.0753 26.0691 17.441C27.3942 16.2513 28.5737 14.9502 29.5611 13.5805C28.7606 13.8119 27.8948 13.9216 27.0274 13.8942C25.8291 13.8565 24.6188 13.5599 23.5594 12.9719C22.3988 12.3239 21.4165 11.3313 20.8217 9.95305C20.6365 9.51762 20.8371 9.01363 21.2725 8.82677C21.7062 8.64163 22.2102 8.84219 22.3971 9.2759C22.8308 10.2839 23.5457 11.0073 24.3908 11.4771C25.2034 11.9279 26.1394 12.1576 27.0737 12.1851C28.0131 12.2142 28.9491 12.0428 29.7513 11.6965C30.4473 11.3965 31.0354 10.9679 31.4177 10.4313C32.2783 8.57306 32.7617 6.65134 32.7617 4.74506L32.7548 4.36449C30.3051 3.59992 27.9822 3.39934 25.8308 3.65134C23.8011 3.88963 21.9137 4.53076 20.2079 5.48219C20.1068 5.63305 19.956 5.75133 19.7691 5.81476C19.7057 5.83533 19.6405 5.84904 19.5771 5.85418C18.6565 6.42332 17.7942 7.08334 16.9954 7.81877C14.5508 10.0662 12.6942 13.0165 11.5937 16.2136C10.7074 18.7919 10.3165 21.5279 10.5085 24.1782ZM33.1799 10.6816C33.1679 10.7896 33.1353 10.8993 33.0771 11.0022C33.0256 11.0948 32.9708 11.1856 32.9125 11.2748C31.637 13.9765 29.6502 16.5256 27.2142 18.7148C26.6502 19.2205 26.0622 19.709 25.4536 20.1753C25.8616 21.3976 26.2662 22.6199 26.6811 23.8405C26.8165 24.2896 26.5628 24.7679 26.1102 24.9051C22.4451 26.0245 19.6199 25.9953 14.2679 25.9371C13.2308 25.9268 12.0737 25.913 10.4554 25.9096L10.4571 33.5879C10.4691 33.8211 10.3868 34.0559 10.2085 34.2342C9.87593 34.5685 9.33423 34.5702 8.99995 34.2376L0.423392 25.6628C0.267392 25.5085 0.171387 25.2942 0.171387 25.0559C0.171387 24.5845 0.553648 24.2022 1.02508 24.2022L8.79252 24.2005C8.7548 23.6399 8.7411 23.0759 8.74967 22.5102V21.4988C8.73938 11.3073 8.73079 3.0342 17.9314 0.219346C18.3736 0.0873459 18.8451 0.329059 18.9908 0.76963L19.9594 3.67533C21.6977 2.78905 23.6005 2.18732 25.6354 1.94904C28.1845 1.65247 30.9359 1.92162 33.8314 2.91419C34.1536 3.01704 34.4005 3.30504 34.4296 3.66332C34.4605 4.02504 34.476 4.38677 34.476 4.74506C34.476 6.7422 34.0131 8.7462 33.1799 10.6816ZM18.2108 24.2451C20.7514 24.2159 22.6782 24.0599 24.7697 23.5096L24.0017 21.2176C22.1931 22.4348 20.2388 23.4633 18.2108 24.2451ZM18.4491 4.54275L17.6416 2.1222C12.5451 4.03535 11.0605 8.35191 10.6302 13.9662C11.8474 11.1633 13.6182 8.59877 15.8365 6.55877C16.6491 5.81306 17.5217 5.1359 18.4491 4.54275ZM24.9377 6.07877C25.4399 5.57649 26.0982 5.32618 26.7565 5.32618C27.4148 5.32618 28.0731 5.57649 28.5754 6.07877C29.0777 6.58277 29.3297 7.24105 29.3297 7.89934C29.3297 8.55591 29.0776 9.21078 28.5771 9.71478C28.0731 10.2205 27.4148 10.4725 26.7565 10.4725C26.1017 10.4725 25.4434 10.2205 24.9411 9.7182C24.4354 9.21592 24.1834 8.55762 24.1834 7.89934C24.1834 7.24105 24.4354 6.58106 24.9377 6.07877ZM26.1514 7.29248C25.9834 7.45876 25.8994 7.67991 25.8994 7.89934C25.8994 8.11877 25.9834 8.3382 26.1497 8.5062C26.3159 8.67249 26.5354 8.75648 26.7565 8.75648C26.976 8.75648 27.1954 8.67249 27.3617 8.5062C27.5314 8.33992 27.6136 8.12048 27.6136 7.89934C27.6136 7.67991 27.5297 7.45877 27.3634 7.2942C27.1954 7.1262 26.976 7.0422 26.7565 7.0422C26.5371 7.0422 26.3177 7.12619 26.1514 7.29248ZM8.74794 31.5668L8.74622 25.9096H3.08909L8.74794 31.5668Z" fill="white"/>
</svg>
