<svg width="32" height="36" viewBox="0 0 32 36" fill="none" xmlns="http://www.w3.org/2000/svg">
<g clip-path="url(#clip0)">
<path d="M0.176904 26.9969C0.54332 27.6243 1.35196 27.8376 1.97739 27.4737L6.30489 24.9955L5.42043 28.2642C5.23091 28.9606 5.64786 29.6821 6.35543 29.8704C7.05667 30.0586 7.78318 29.6445 7.97271 28.9418L9.53945 23.1384L14.5492 20.2649V26.0119L10.2723 30.2593C9.75424 30.7738 9.75424 31.602 10.2723 32.1164C10.7903 32.6309 11.6242 32.6309 12.1423 32.1164L14.5555 29.7198V34.6825C14.5555 35.404 15.1494 35.9937 15.8759 35.9937C16.6024 35.9937 17.1963 35.404 17.1963 34.6825V29.7198L19.6096 32.1164C20.1276 32.6309 20.9615 32.6309 21.4795 32.1164C21.9976 31.602 21.9976 30.7738 21.4795 30.2593L17.2026 26.0119V20.2649L22.2124 23.1384L23.7791 28.9418C23.9686 29.6382 24.6888 30.0523 25.3964 29.8704C26.104 29.6821 26.5209 28.9669 26.3314 28.2642L25.4469 24.9955L29.7744 27.4737C30.4062 27.8376 31.2148 27.618 31.5749 26.9969C31.9413 26.3695 31.7202 25.5664 31.0948 25.2088L26.7673 22.7306L30.0587 21.8522C30.76 21.664 31.1832 20.9488 30.9937 20.2461C30.8358 19.6626 30.3051 19.2736 29.7176 19.2736C29.6039 19.2736 29.4901 19.2862 29.3764 19.3175L23.5327 20.8735L18.5103 18L23.5201 15.1265L29.3638 16.6825C30.0713 16.8707 30.7915 16.4566 30.9811 15.7539C31.1706 15.0575 30.7536 14.336 30.0461 14.1478L26.7547 13.2694L31.0821 10.7912C31.7139 10.4273 31.9287 9.62427 31.5623 9.00315C31.3159 8.58279 30.8737 8.34438 30.4188 8.34438C30.1977 8.34438 29.9703 8.40085 29.7618 8.52005L25.4343 10.9983L26.3187 7.72954C26.5083 7.03313 26.0913 6.31162 25.3838 6.1234C25.27 6.09203 25.1563 6.07948 25.0426 6.07948C24.4614 6.07948 23.9244 6.46847 23.7665 7.05195L22.1997 12.8554L17.19 15.7288V9.98189L21.4669 5.73442C21.9849 5.21995 21.9849 4.39179 21.4669 3.87732C21.2079 3.62009 20.8731 3.49461 20.5319 3.49461C20.1971 3.49461 19.8559 3.62009 19.5969 3.87732L17.1836 6.27398V1.31754C17.1836 0.596039 16.5898 0.00628662 15.8633 0.00628662C15.1368 0.00628662 14.5429 0.596039 14.5429 1.31754V6.27398L12.1296 3.87732C11.8706 3.62009 11.5358 3.49461 11.1946 3.49461C10.8535 3.49461 10.5187 3.62009 10.2596 3.87732C9.74161 4.39179 9.74161 5.21995 10.2596 5.73442L14.5366 9.98189V15.7288L9.53945 12.8554L7.97271 7.05195C7.81477 6.46847 7.2841 6.07948 6.69657 6.07948C6.58286 6.07948 6.46914 6.09203 6.35543 6.1234C5.64786 6.31162 5.23091 7.02685 5.42043 7.72954L6.30489 10.9983L1.97739 8.52005C1.76892 8.40085 1.54149 8.34438 1.32037 8.34438C0.865512 8.34438 0.423287 8.58279 0.176904 9.00315C-0.189511 9.63055 0.0316016 10.4336 0.657035 10.7912L4.98453 13.2694L1.69311 14.1478C0.985545 14.336 0.56859 15.0513 0.758115 15.7539C0.94764 16.4503 1.66784 16.8644 2.3754 16.6825L8.21909 15.1265L13.2289 18L8.21909 20.8735L2.3754 19.3175C2.26168 19.2862 2.14797 19.2736 2.03425 19.2736C1.45304 19.2736 0.916053 19.6626 0.758115 20.2461C0.56859 20.9425 0.985545 21.664 1.69311 21.8522L4.98453 22.7306L0.657035 25.2088C0.0316016 25.5664 -0.189511 26.3695 0.176904 26.9969Z" fill="white"/>
</g>
<defs>
<clipPath id="clip0">
<rect width="31.7455" height="36" fill="white"/>
</clipPath>
</defs>
</svg>
