<svg width="36" height="36" viewBox="0 0 36 36" fill="none" xmlns="http://www.w3.org/2000/svg">
<path fill-rule="evenodd" clip-rule="evenodd" d="M6.59818 24.6137C7.78447 24.6137 8.85763 24.1354 9.63077 23.3605C10.4073 22.5857 10.8873 21.5125 10.8873 20.3262C10.8873 19.1399 10.4073 18.0668 9.63417 17.2937C8.8576 16.5171 7.78447 16.0371 6.59818 16.0371C5.41189 16.0371 4.33873 16.5171 3.56559 17.2902C2.78902 18.0668 2.31074 19.1399 2.31074 20.3262C2.31074 21.5125 2.78904 22.5857 3.56219 23.3571C4.33876 24.1354 5.41189 24.6137 6.59818 24.6137ZM20.321 29.7616C20.7942 29.7616 21.1782 30.1456 21.1782 30.6188C21.1782 31.0919 20.7942 31.4759 20.321 31.4759C19.8479 31.4759 19.4639 31.0919 19.4639 30.6188C19.4639 30.1456 19.8479 29.7616 20.321 29.7616ZM6.59818 21.1834C7.07132 21.1834 7.45532 21.5674 7.45532 22.0405C7.45532 22.5136 7.07132 22.8994 6.59818 22.8994C6.12504 22.8994 5.74104 22.5136 5.74104 22.0405C5.74104 21.5674 6.12504 21.1834 6.59818 21.1834ZM28.4056 7.3285C28.8376 6.21936 28.793 5.37594 28.3799 4.68508C27.9325 3.93937 27.0616 3.28795 25.8856 2.63995C25.7793 2.93481 25.7005 3.21936 25.649 3.49364C25.5033 4.2685 25.5736 4.95592 25.8548 5.52507C26.1359 6.09592 26.6382 6.57595 27.353 6.93252C27.6667 7.08681 28.0182 7.2205 28.4056 7.3285ZM29.8456 3.80738C30.4833 4.87024 30.6273 6.07367 30.1473 7.53938C30.3908 7.57024 30.6273 7.61134 30.8588 7.65934C32.0656 7.91649 33.0719 8.42053 33.7851 9.1131C34.5513 9.8571 34.9799 10.8 34.9799 11.8851C34.9799 12.1714 34.949 12.4731 34.8822 12.7851C34.7142 13.5754 34.4107 14.2885 34.0987 15.0222C33.2587 16.9988 32.3296 19.1828 34.781 23.3228C35.021 23.7291 34.8856 24.2554 34.4793 24.4954C34.2908 24.6068 34.0764 24.6359 33.8759 24.5965C32.9313 24.4096 32.0948 24.1216 31.3593 23.7548L31.2942 23.7188C28.8822 22.4879 27.5947 20.4239 27.0187 18.1405C26.4599 15.9188 26.5833 13.4965 26.9896 11.4668C27.0787 11.0228 27.1816 10.5942 27.2947 10.1897C24.9325 11.6777 23.4633 13.3371 22.5685 15.2228C21.5228 17.4205 21.2262 19.9834 21.1833 22.9611C22.4913 23.1514 23.6639 23.7617 24.5571 24.6531L24.5639 24.6582C25.6525 25.7485 26.3244 27.2502 26.3244 28.9028C26.3244 30.5536 25.6559 32.0519 24.5725 33.1388L24.5656 33.1456C23.4753 34.2359 21.9753 34.9062 20.321 34.9062C18.6702 34.9062 17.1719 34.2376 16.085 33.1542L16.0799 33.1491C14.9896 32.0571 14.3176 30.5571 14.3176 28.9028C14.3176 27.2536 14.9879 25.7537 16.0713 24.6668L16.0765 24.6616C16.9765 23.7633 18.1542 23.1479 19.469 22.9594C19.5119 19.7571 19.8427 16.9714 21.0205 14.4925C21.9427 12.5502 23.3673 10.8308 25.5513 9.29479C22.2273 9.5485 19.6387 10.2 17.465 11.1908C14.8902 12.3634 12.8622 14.0331 10.8496 16.0902C11.9331 17.1788 12.6016 18.6771 12.6016 20.3262C12.6016 21.9754 11.9331 23.4754 10.8496 24.5622L10.8428 24.5674C9.75249 25.6576 8.25247 26.3297 6.59818 26.3297C4.94732 26.3297 3.44902 25.6594 2.36217 24.5759L2.35704 24.5708C1.26675 23.4805 0.594727 21.9788 0.594727 20.3262C0.594727 18.6754 1.26503 17.1771 2.34846 16.0902L2.35359 16.0833C3.44387 14.9931 4.94561 14.3228 6.59818 14.3228C7.63704 14.3228 8.61587 14.5868 9.46959 15.0548C11.6656 12.7885 13.8804 10.9474 16.7553 9.63594C19.0833 8.57651 21.8262 7.87539 25.3165 7.59939C24.8948 7.21368 24.5622 6.77138 24.3205 6.28281C23.8731 5.37424 23.7513 4.3251 23.9673 3.17996C24.0942 2.51138 24.3393 1.80506 24.7045 1.07649C24.9153 0.654779 25.4279 0.483364 25.8496 0.694221C27.7011 1.61994 29.1033 2.56967 29.8456 3.80738ZM30.5039 9.33424C30.173 9.26566 29.8165 9.21595 29.4393 9.19366C29.1496 9.88623 28.8736 10.7862 28.6713 11.8011C28.3062 13.6251 28.1913 15.7833 28.6799 17.7239C29.1445 19.5668 30.1662 21.2228 32.069 22.1965L32.3399 22.3251C30.7164 18.6085 31.6593 16.3885 32.525 14.352C32.8045 13.6971 33.0736 13.0628 33.2073 12.4302C33.2468 12.2468 33.2656 12.0651 33.2656 11.8851C33.2656 11.2834 33.0239 10.7571 32.5936 10.3388C32.1119 9.87252 31.3936 9.52281 30.5039 9.33424ZM20.321 33.1919C21.5073 33.1919 22.5804 32.712 23.3536 31.9388C24.1302 31.1622 24.6102 30.0908 24.6102 28.9028C24.6102 27.7165 24.1302 26.6434 23.357 25.872C22.5805 25.0937 21.5073 24.6154 20.321 24.6154C19.1348 24.6154 18.0616 25.0936 17.2885 25.8685C16.5119 26.6434 16.0319 27.7165 16.0319 28.9028C16.0319 30.0908 16.5119 31.1622 17.2851 31.9354C18.0616 32.7119 19.1348 33.1919 20.321 33.1919Z" fill="white"/>
</svg>
