<svg width="23" height="36" viewBox="0 0 23 36" fill="none" xmlns="http://www.w3.org/2000/svg">
<path fill-rule="evenodd" clip-rule="evenodd" d="M11.6057 34.9559C11.6057 35.4291 11.2217 35.8131 10.7486 35.8131C10.2754 35.8131 9.89144 35.4291 9.89144 34.9559C9.89144 34.4793 9.89144 34.0079 9.89487 33.5417C8.0263 31.2325 6.68229 29.9914 5.23544 29.0314L2.59545 30.5485C2.18745 30.7834 1.6663 30.6428 1.43145 30.2348C1.19659 29.8251 1.33714 29.3039 1.74686 29.0691L3.54344 28.0371C3.00344 27.7491 2.42743 27.4611 1.79143 27.1422C1.368 26.9314 1.19658 26.4188 1.40743 25.9971C1.61829 25.5754 2.13086 25.4039 2.55258 25.6148C4.09372 26.3845 5.29716 26.9862 6.45944 27.7851V26.3776C6.45944 25.9045 6.84516 25.5205 7.31659 25.5205C7.79144 25.5205 8.17543 25.9045 8.17543 26.3776V29.1514C8.72915 29.6554 9.30686 30.2399 9.93429 30.9445C10.0029 27.9548 10.1572 25.1691 10.4263 22.5754C10.044 22.1211 9.65144 21.6891 9.25201 21.2776L6.11487 23.6314C5.73772 23.9142 5.20116 23.8371 4.9183 23.4599C4.63544 23.0828 4.71257 22.5479 5.08971 22.2651L8.00572 20.0777C7.79143 19.8874 7.57716 19.7005 7.36116 19.5205C6.07888 18.4473 4.75886 17.5594 3.468 16.8325C3.05486 16.6011 2.90744 16.0799 3.14058 15.6668C3.37029 15.2554 3.89314 15.1079 4.30628 15.3394C5.01771 15.7405 5.73944 16.1879 6.45944 16.6851V14.3708C6.45944 13.8976 6.84516 13.5136 7.31659 13.5136C7.79144 13.5136 8.17543 13.8976 8.17543 14.3708V17.8011C8.17543 17.8559 8.17028 17.9091 8.16 17.9605L8.46 18.2074C9.22115 18.8451 9.97202 19.5445 10.6972 20.3108C10.7914 19.6285 10.8943 18.9616 11.0074 18.3085C11.0109 18.2759 11.016 18.2433 11.0229 18.2125C11.2011 17.1908 11.4034 16.2017 11.6331 15.2451L11.736 14.8251C11.6914 14.7514 11.6554 14.6691 11.6331 14.5799C11.4051 13.6697 11.1531 12.8742 10.8789 12.1714L7.23087 11.7908C6.76115 11.7428 6.42001 11.3228 6.4663 10.8531C6.5143 10.3833 6.93429 10.0422 7.40401 10.0885L10.0286 10.3628C9.52116 9.46452 8.96915 8.73767 8.38972 8.07253C8.07943 7.71767 8.11543 7.17765 8.47028 6.86565C8.82514 6.55708 9.36515 6.59136 9.67543 6.94622C10.0029 7.32165 10.3217 7.71249 10.6286 8.13421L11.8612 6.90337C12.1954 6.5708 12.7371 6.57249 13.0697 6.90677C13.4023 7.24277 13.4023 7.78448 13.0663 8.11705L11.5714 9.61192L11.6966 9.83991C12.0171 10.4451 12.3189 11.1171 12.6 11.8799C13.26 9.93763 14.0657 8.15137 15.0394 6.50394V2.36393C15.0394 1.8925 15.4217 1.51024 15.8931 1.51024C16.3646 1.51024 16.7486 1.8925 16.7486 2.36393V3.99079C17.3537 3.21079 18.0103 2.46678 18.7183 1.75706C19.0526 1.42278 19.596 1.42278 19.932 1.75706C20.2663 2.09306 20.2663 2.6365 19.932 2.97079C18.5674 4.33536 17.412 5.84221 16.44 7.50678C16.8549 7.35935 17.2611 7.2342 17.6657 7.12791C18.7731 6.83477 19.8583 6.68564 21.0206 6.65649C21.492 6.64621 21.8846 7.01992 21.8949 7.49135C21.9052 7.96278 21.5314 8.35537 21.06 8.36565C20.5886 8.37765 20.1309 8.41195 19.68 8.47023L21.6292 10.3216C21.972 10.6474 21.9857 11.1891 21.66 11.5319C21.3343 11.8731 20.7926 11.8868 20.4514 11.5611L17.6554 8.90738C16.8874 9.13881 16.092 9.45249 15.2297 9.85535C14.4326 11.6228 13.7966 13.5479 13.2943 15.6411C13.236 15.8862 13.1777 16.1348 13.1229 16.3851C13.3869 16.2308 13.6646 16.0902 13.9526 15.9634C14.208 15.8519 14.4703 15.7508 14.7429 15.6633L14.7634 15.6565L14.7669 15.6548C15.5143 15.4148 16.3354 15.2656 17.2491 15.2348L18.7183 13.7656C19.0526 13.4314 19.596 13.4314 19.932 13.7656C20.2663 14.0999 20.2663 14.6434 19.932 14.9776L19.0543 15.8553L21.4217 17.0399C21.8434 17.2508 22.0149 17.7634 21.804 18.1851C21.5931 18.6068 21.0806 18.7782 20.6589 18.5673L17.4189 16.9457C16.944 16.9577 16.5 17.0039 16.0869 17.0845L16.7177 19.2839C16.848 19.7382 16.5823 20.2131 16.128 20.3416C15.6737 20.4719 15.1989 20.2062 15.0703 19.7519L14.4566 17.6159C13.7811 17.9382 13.188 18.3599 12.6497 18.8399C12.4611 19.9662 12.3034 21.1371 12.1714 22.3525L12.1629 22.4313L12.1611 22.4382C11.9863 24.0685 11.8577 25.7811 11.7686 27.5777C12.5229 26.9211 13.2892 26.3811 14.0589 25.9336L15.0771 22.6937C15.2177 22.2428 15.6977 21.9908 16.1486 22.1314C16.5994 22.2719 16.8514 22.7519 16.7109 23.2028L16.1692 24.9273C17.7909 24.3085 19.3971 24.012 20.9331 23.8182C21.4011 23.7582 21.828 24.0891 21.888 24.5571C21.9463 25.0251 21.6154 25.4536 21.1474 25.5119C20.5714 25.5856 19.9851 25.6748 19.392 25.7914L21.5537 27.4131C21.9309 27.6959 22.0063 28.2308 21.7234 28.6079C21.4406 28.9851 20.9057 29.0622 20.5286 28.7793L17.2869 26.3468C16.9492 26.4599 16.6131 26.5885 16.2771 26.7325C15.9634 26.8679 15.6497 27.0171 15.3377 27.1833C15.2383 27.2725 15.12 27.3376 14.9914 27.3736C13.8686 28.0148 12.7543 28.8788 11.6726 30.0582C11.6263 31.6285 11.6057 33.2605 11.6057 34.9559Z" fill="white"/>
</svg>
