<svg width="38" height="36" viewBox="0 0 38 36" fill="none" xmlns="http://www.w3.org/2000/svg">
<g clip-path="url(#clip0)">
<path fill-rule="evenodd" clip-rule="evenodd" d="M8.51759 8.21165L8.52479 8.2206C8.54819 8.2476 8.56801 8.27282 8.58601 8.30162C9.34381 9.30062 10.233 9.99002 11.1996 10.179C11.6874 10.2708 12.006 10.7424 11.9142 11.2302C11.8206 11.718 11.349 12.0366 10.8612 11.943C9.79739 11.736 8.83259 11.1672 7.99019 10.3374C7.71659 10.8774 7.4772 11.4372 7.2738 12.015C7.0398 12.6918 6.85621 13.3938 6.72841 14.1174C9.74161 14.5944 12.5892 15.5934 14.94 17.316C17.0622 18.873 18.7668 21.0042 19.8072 23.8518C20.4354 20.88 21.4776 18.4518 22.8474 16.5078C22.1922 13.023 20.0916 10.3914 17.442 8.51404C14.1894 6.21184 10.1232 5.0328 6.83281 4.7988C7.25941 6.0966 7.82999 7.27745 8.51759 8.21165ZM20.9448 29.943C22.3938 29.8476 23.7816 29.5218 25.0704 29.0034L25.0902 28.9944L25.11 28.9872L25.1298 28.9782L25.1424 28.9746C26.82 28.2888 28.3284 27.2772 29.5902 26.0154C31.6656 23.94 33.0678 21.1914 33.444 18.1242C32.6484 18.6822 31.7934 19.0458 30.9564 19.1556C30.465 19.2168 30.015 18.8694 29.9538 18.378C29.8908 17.8866 30.24 17.4367 30.7314 17.3755C31.743 17.2441 32.841 16.5114 33.7176 15.4332L33.732 15.4152H33.7338L33.7608 15.381C33.8094 15.3198 33.858 15.2568 33.9066 15.1938C34.5888 14.283 35.0964 13.1688 35.2764 11.9808C31.4082 12.1608 27.954 13.4478 25.4232 16.1748C22.77 19.0314 21.0906 23.4918 20.9448 29.943ZM35.3412 16.2684L35.3466 16.4646C35.3466 20.691 33.633 24.5196 30.8628 27.2898C29.565 28.5876 28.035 29.6532 26.3412 30.42V34.4755C26.3412 34.9723 25.9362 35.3755 25.4394 35.3755H14.6322C14.1354 35.3755 13.7322 34.9723 13.7322 34.4755V30.4164C12.7458 29.97 11.8152 29.4228 10.9548 28.7856C8.4258 26.919 6.48901 24.291 5.49001 21.24C5.22901 21.0258 4.98059 20.7954 4.73939 20.5542C2.94839 18.765 1.6344 16.254 1.206 15.039C1.1538 14.9256 1.125 14.7978 1.125 14.6646C1.125 14.1678 1.5282 13.7646 2.025 13.7646C3.0024 13.7646 3.97799 13.806 4.94459 13.8942C5.08859 13.0464 5.30281 12.2202 5.58001 11.4246C5.89501 10.5192 6.2928 9.65165 6.7662 8.83265C5.8824 7.49885 5.1966 5.83924 4.7556 4.07524C4.7394 4.00684 4.73041 3.93303 4.73041 3.85743C4.73041 3.36423 5.1336 2.961 5.6286 2.961C7.3602 2.961 9.37979 3.22924 11.4426 3.79624C12.6414 2.98264 13.968 2.33104 15.3846 1.87924C16.8588 1.40944 18.423 1.15381 20.0376 1.15381C23.2362 1.15381 26.2098 2.1384 28.6686 3.8214C31.005 5.418 32.8788 7.65183 34.038 10.2726C34.7598 10.2006 35.496 10.1628 36.243 10.1628C36.7434 10.1592 37.1484 10.5642 37.1484 11.061C37.1484 12.9906 36.4158 14.8356 35.3412 16.2684ZM32.1894 10.5498C31.1562 8.43301 29.5848 6.62401 27.6552 5.30461C25.488 3.82321 22.8654 2.95562 20.0376 2.95562C18.5958 2.95562 17.2134 3.17705 15.9264 3.58745C15.1488 3.83584 14.4018 4.15263 13.6908 4.53243C15.3558 5.16783 16.9938 6.00121 18.4752 7.05061C21.1158 8.92081 23.2776 11.4696 24.2712 14.778C26.4384 12.519 29.1546 11.1618 32.1894 10.5498ZM19.1178 29.9412C18.9126 24.4998 16.866 20.9574 13.878 18.765C11.016 16.668 7.263 15.7626 3.402 15.5952C3.9654 16.7058 4.87619 18.1458 6.01199 19.2816C6.98039 20.25 8.09461 20.97 9.23041 20.97C9.72721 20.97 10.1304 21.3732 10.1304 21.87C10.1304 22.3668 9.72721 22.77 9.23041 22.77C8.80741 22.77 8.39699 22.7106 7.99739 22.6044C8.95499 24.48 10.341 26.1018 12.024 27.3438C12.906 27.9954 13.869 28.5408 14.9004 28.9638C14.9454 28.9782 14.9904 28.9962 15.0336 29.0178C16.3098 29.5254 17.6832 29.8458 19.1178 29.9412ZM15.534 31.0986V33.5755H24.5394V31.1005C23.1156 31.5379 21.6036 31.7736 20.0376 31.7736C18.4698 31.7736 16.9578 31.5378 15.534 31.0986Z" fill="white"/>
</g>
<defs>
<clipPath id="clip0">
<rect width="37.8" height="36" fill="white"/>
</clipPath>
</defs>
</svg>
