<svg width="36" height="36" viewBox="0 0 36 36" fill="none" xmlns="http://www.w3.org/2000/svg">
<path fill-rule="evenodd" clip-rule="evenodd" d="M30.5726 6.25202C30.2366 6.58631 29.6931 6.58631 29.3589 6.25202C29.0246 5.91774 29.0246 5.37431 29.3589 5.04002C29.6931 4.70574 29.8611 4.26515 29.8611 3.82629C29.8611 3.38744 29.6931 2.94686 29.3589 2.61429C29.0246 2.27829 28.5857 2.11201 28.1469 2.11201C27.708 2.11201 27.2674 2.27831 26.9331 2.60917C26.5989 2.94688 26.4309 3.38744 26.4309 3.82629C26.4309 4.26687 26.5989 4.70746 26.9314 5.04175C27.0086 5.11375 27.0823 5.17885 27.1543 5.22857C27.2366 5.28685 27.3206 5.33661 27.4029 5.37432C27.8297 5.57661 28.0114 6.08571 27.8109 6.51428C27.768 6.60514 27.7097 6.68572 27.6429 6.75258L23.2954 11.1034L24.5074 12.3172L28.8566 7.96803C29.1926 7.63375 29.7343 7.63375 30.0703 7.96803C30.1543 8.05203 30.2177 8.15146 30.2606 8.25603C30.2949 8.32289 30.336 8.38976 30.3823 8.45661C30.4337 8.52861 30.4971 8.60232 30.5726 8.67775C30.9069 9.01204 31.3457 9.18004 31.7846 9.18004C32.2251 9.18004 32.664 9.01204 32.9983 8.67775C33.3326 8.34347 33.5006 7.90461 33.5006 7.46575C33.5006 7.02689 33.3326 6.58631 32.9983 6.25202C32.664 5.91774 32.2251 5.74974 31.7846 5.74974C31.3457 5.74974 30.9069 5.91774 30.5726 6.25202ZM6.75086 25.4932C6.75086 25.9646 6.36686 26.3503 5.89372 26.3503C5.42058 26.3503 5.03658 25.9646 5.03658 25.4932C5.03658 23.9297 5.55257 22.6234 6.40457 21.5948C7.33029 20.4788 8.64514 19.7057 10.1143 19.2994C10.5703 19.1726 11.0417 19.44 11.1669 19.8943C11.2937 20.3503 11.0263 20.8217 10.5703 20.9469C9.42857 21.2623 8.41885 21.8503 7.72457 22.6852C7.11942 23.4172 6.75086 24.3566 6.75086 25.4932ZM25.6354 13.6149L26.388 14.3691C26.7223 14.7051 26.7223 15.2469 26.388 15.5829C24.7251 17.2457 21.3977 20.5732 19.5943 27.0874C18.9823 29.3006 17.8217 31.2789 16.1503 32.6657C14.6194 33.9343 12.6737 34.704 10.3423 34.704C9.11828 34.704 7.91486 34.4417 6.79886 33.9669C5.65886 33.48 4.60971 32.7703 3.72514 31.8909L3.708 31.872C2.83543 30.9909 2.12914 29.9469 1.64571 28.8138C1.17086 27.6978 0.908569 26.496 0.908569 25.2703C0.908569 22.9406 1.67657 20.9932 2.94686 19.4623C4.332 17.7909 6.31029 16.6303 8.52343 16.0166C15.036 14.2149 18.3651 10.8875 20.028 9.22461C20.364 8.88861 20.9074 8.8886 21.2417 9.22288L21.9943 9.97717L25.7211 6.25202C25.0509 5.58002 24.7166 4.70229 24.7166 3.82629C24.7166 2.95887 25.0457 2.08802 25.704 1.41945L25.7211 1.40402C26.3931 0.730304 27.2709 0.395996 28.1469 0.395996C29.0246 0.395996 29.9023 0.730279 30.5726 1.40056C31.2411 2.06914 31.5771 2.94858 31.5771 3.82629L31.5703 4.04058L31.7846 4.03373C32.664 4.03373 33.5417 4.36974 34.212 5.04002C34.8806 5.70859 35.2166 6.58804 35.2166 7.46575C35.2166 8.34346 34.8806 9.22114 34.212 9.89143C33.5417 10.56 32.664 10.896 31.7846 10.896C30.9069 10.896 30.0291 10.56 29.3589 9.89143L25.6354 13.6149ZM24.5709 14.9795L20.6331 11.04C18.7029 12.9206 15.216 15.9394 8.97943 17.6657C7.09371 18.1869 5.42057 19.1623 4.26685 20.5543C3.24343 21.7869 2.62285 23.3674 2.62285 25.2703C2.62285 26.2663 2.83714 27.2417 3.22114 28.1434C3.62057 29.0829 4.20857 29.9486 4.93371 30.6789C5.664 31.404 6.52972 31.992 7.46915 32.3914C8.37086 32.7754 9.34628 32.988 10.3423 32.988C12.2451 32.988 13.8257 32.3692 15.0583 31.3457C16.4503 30.192 17.424 28.5172 17.9469 26.6315C19.6731 20.3949 22.6903 16.908 24.5709 14.9795Z" fill="white"/>
</svg>
