<svg width="26" height="36" viewBox="0 0 26 36" fill="none" xmlns="http://www.w3.org/2000/svg">
<g clip-path="url(#clip0)">
<path fill-rule="evenodd" clip-rule="evenodd" d="M1.02685 33.6274L1.02515 9.612C1.02515 9.35314 1.13998 9.12173 1.3217 8.96402L6.17143 4.11258V1.03372C6.17143 0.560575 6.55543 0.176575 7.02857 0.176575L19.0372 0.178301C19.5086 0.178301 19.8908 0.562289 19.8908 1.03372L19.8943 4.10743L24.7903 9.00344C24.8554 9.07201 24.912 9.15258 24.9514 9.24001H24.9531L24.9583 9.24859L24.9617 9.25714V9.25887L24.9668 9.26745L24.9703 9.27773L24.9771 9.29659L24.9823 9.30514L24.9857 9.31545L24.9891 9.32573L24.9926 9.33601L24.996 9.34629L24.9977 9.35487V9.35657L25.0012 9.36515L25.0046 9.37543L25.0097 9.39601L25.0149 9.41657L25.02 9.43716L25.0234 9.45772L25.0268 9.48001L25.0303 9.50059L25.032 9.52285L25.0354 9.54344V9.56573L25.0372 9.58801V33.6274C25.0372 34.0989 24.6531 34.4811 24.1817 34.4811C16.7485 34.4811 9.31543 34.4846 1.88229 34.4811C1.41086 34.4811 1.02856 34.0989 1.02685 33.6274ZM7.88572 3.6103L18.1783 3.60857V1.88743H7.88572V3.6103ZM23.328 10.464L13.032 10.4657V32.772H23.328V10.464ZM12.5331 8.75658L22.116 8.75486L18.6788 5.31773L9.09256 5.31943L12.5331 8.75658ZM2.74113 9.96343V32.772H11.3177V9.96686L7.02685 5.67602L2.74113 9.96343Z" fill="white"/>
</g>
<defs>
<clipPath id="clip0">
<rect width="25.7143" height="36" fill="white"/>
</clipPath>
</defs>
</svg>
