<svg width="30" height="36" viewBox="0 0 30 36" fill="none" xmlns="http://www.w3.org/2000/svg">
<path fill-rule="evenodd" clip-rule="evenodd" d="M21.924 13.944C23.8063 14.3965 25.416 15.324 26.5834 16.7125C27.8229 18.1868 28.548 20.16 28.548 22.6097L28.5463 22.9217V22.9371L28.5446 23.0074C28.5034 25.2017 28.1263 27.3171 27.48 29.3057L27.4646 29.3485C26.7394 31.572 25.6783 33.6308 24.3806 35.4548C24.2143 35.688 23.9503 35.8131 23.6846 35.8131L11.1137 35.8165C10.8017 35.8165 10.5274 35.6502 10.3783 35.4C9.08573 33.5725 8.03144 31.524 7.31315 29.3074C6.69944 27.4182 6.32916 25.4091 6.26058 23.3143C2.82173 19.7965 1.10229 16.2428 1.10229 12.6583C1.10229 4.94054 9.06687 4.94054 13.968 4.94054L14.0452 4.94224L24.2606 4.94397C24.732 4.94397 25.1143 5.32626 25.1143 5.79769C25.1143 5.9434 25.0783 6.07882 25.0149 6.19882C24.7132 6.80053 24.42 7.33711 24.1372 7.85482C23.1789 9.60511 22.3234 11.172 21.924 13.944ZM6.37544 20.9022C6.63944 19.2068 7.29773 17.7925 8.25944 16.6714C9.47316 15.2537 11.1549 14.3228 13.1126 13.8908L13.1143 6.65653C8.85773 6.68053 2.81829 7.04226 2.81829 12.6583C2.81829 15.3823 4.00459 18.1302 6.37544 20.9022ZM15.6823 3.22453C15.2092 3.22453 14.8252 2.84055 14.8252 2.36569C14.8252 1.89426 15.2092 1.50854 15.6823 1.50854H20.8286C21.3034 1.50854 21.6874 1.89426 21.6874 2.36569C21.6874 2.84055 21.3034 3.22453 20.8286 3.22453H15.6823ZM8.02458 21.5143C11.2989 20.1497 14.4771 21.1405 17.652 22.1331C20.7549 23.1034 23.8577 24.072 26.832 22.4605C26.8046 20.5028 26.2354 18.9497 25.2772 17.8097C24.2246 16.5583 22.68 15.7731 20.856 15.4731C20.4052 15.408 20.0829 14.9965 20.1291 14.5405C20.5063 10.9337 21.5074 9.10453 22.6354 7.0371L22.8463 6.6531L14.8217 6.6514V14.5354C14.856 14.9811 14.5423 15.3822 14.0949 15.4491C12.2263 15.7371 10.6406 16.5205 9.55886 17.7823C8.73944 18.7371 8.19773 19.9834 8.02458 21.5143ZM26.7514 24.3977C23.484 25.7502 20.3126 24.7594 17.1429 23.7685C14.0469 22.8017 10.9509 21.8348 7.98001 23.4325C8.05715 25.3028 8.39486 27.096 8.94001 28.7777C9.56572 30.7045 10.464 32.4925 11.5594 34.1005H23.2389C24.3257 32.5045 25.2189 30.7251 25.8412 28.8171L25.8532 28.776C26.3057 27.3822 26.6143 25.9148 26.7514 24.3977Z" fill="white"/>
</svg>
