<svg width="31" height="32" viewBox="0 0 31 32" fill="none" xmlns="http://www.w3.org/2000/svg">
<path fill-rule="evenodd" clip-rule="evenodd" d="M14.7885 9.26784C15.9146 9.26936 17.0102 9.30747 18.0616 9.38061C18.2308 8.97375 18.4335 8.56994 18.6346 8.1646C19.2746 6.88613 19.9146 5.60612 18.7778 4.46936C18.4807 4.17374 18.4792 3.69222 18.7748 3.39507C19.0704 3.09793 19.5535 3.09641 19.8506 3.39203C21.763 5.30288 20.8776 7.07508 19.9938 8.84422C19.8811 9.06975 19.7683 9.29373 19.6647 9.51926C21.5481 9.71735 23.2411 10.0252 24.646 10.4153C27.4483 11.1924 29.1916 12.3825 29.2236 13.8027L29.225 13.8225V13.8423C29.225 17.6381 27.5961 21.0743 24.9645 23.5596C23.974 24.4937 22.8418 25.2953 21.6014 25.9292V27.5642C21.6014 28.5456 20.7283 29.3638 19.3173 29.8926C18.1302 30.3391 16.5089 30.6149 14.7397 30.6149C12.9706 30.6149 11.3493 30.3391 10.1622 29.8926C8.75118 29.3638 7.87805 28.5456 7.87805 27.5642V25.9292C6.63766 25.2953 5.50547 24.4953 4.515 23.5596C1.88338 21.0743 0.254395 17.6381 0.254395 13.8423L0.255929 13.8225V13.8027C0.286405 12.3825 2.03116 11.1939 4.83345 10.4153C5.98393 10.0953 7.32791 9.83166 8.8121 9.63661C8.99801 9.14442 9.24185 8.65527 9.48719 8.1646C10.1257 6.88613 10.7657 5.60612 9.63042 4.46936C9.33175 4.17374 9.3302 3.69222 9.62735 3.39507C9.92297 3.09793 10.4045 3.09641 10.7017 3.39203C12.614 5.30288 11.7287 7.07508 10.8449 8.84422C10.7443 9.04536 10.6437 9.2465 10.5493 9.44764C11.4057 9.37298 12.2971 9.31966 13.2129 9.29223C13.3866 8.42823 13.7081 7.57184 14.0281 6.71545C14.7184 4.87622 15.4072 3.03547 14.1333 1.33794C13.8818 1.00118 13.9489 0.525732 14.2841 0.274304C14.6193 0.0228753 15.0963 0.0899447 15.3462 0.425183C17.1215 2.79014 16.2864 5.01794 15.4514 7.24575C15.1969 7.92232 14.9439 8.59889 14.7885 9.26784ZM19.2304 11.005C19.203 11.5353 19.363 12.0503 19.8536 12.541C20.1508 12.8381 20.1508 13.3212 19.8536 13.6183C19.5565 13.917 19.072 13.917 18.7748 13.6183C17.8346 12.6781 17.571 11.7699 17.6532 10.8816C16.7161 10.8237 15.7409 10.7932 14.7397 10.7932H14.6468C14.6955 11.4164 14.9013 12.029 15.3462 12.6233C15.5992 12.9585 15.5306 13.4354 15.1953 13.6869C14.8601 13.9383 14.3832 13.8713 14.1333 13.5345C13.4399 12.6126 13.1459 11.7105 13.0925 10.8206C12.0457 10.8572 11.0369 10.9242 10.0799 11.0217C10.0571 11.5459 10.2201 12.0564 10.7047 12.541C11.0018 12.8381 11.0018 13.3212 10.7047 13.6183C10.4075 13.917 9.92449 13.917 9.62735 13.6183C8.80449 12.797 8.49973 11.9985 8.49058 11.2168C7.28373 11.392 6.18963 11.616 5.23877 11.8797C3.10239 12.4724 1.77974 13.1749 1.77974 13.8423C1.77974 14.5097 3.10239 15.2107 5.23877 15.8035C7.65553 16.4755 11.014 16.8915 14.7397 16.8915C18.4655 16.8915 21.8239 16.4755 24.2407 15.8035C26.3771 15.2107 27.6998 14.5097 27.6998 13.8423C27.6998 13.1749 26.3771 12.4724 24.2407 11.8797C22.8464 11.4926 21.1397 11.1909 19.2304 11.005ZM20.0761 26.6012C18.4243 27.2229 16.6232 27.5642 14.7397 27.5642C12.8563 27.5642 11.0552 27.2229 9.40334 26.6012V27.5642C9.40334 27.8461 9.89707 28.1722 10.6925 28.4709C11.7119 28.8518 13.1413 29.0895 14.7397 29.0895C16.3382 29.0895 17.7691 28.8518 18.787 28.4709C19.5839 28.1722 20.0761 27.8461 20.0761 27.5642V26.6012ZM20.4662 24.7878C20.4982 24.7696 20.5302 24.7543 20.5653 24.7421C21.8133 24.1494 22.9455 23.3737 23.9222 22.4518C24.454 21.949 24.9417 21.4035 25.3744 20.8183C24.8609 21.1017 24.294 21.3684 23.6647 21.6092C21.5055 22.4412 18.6239 22.9898 14.7397 22.9898C10.8556 22.9898 7.97404 22.4396 5.8148 21.6092C5.18699 21.3684 4.6186 21.1033 4.10507 20.8183C4.53936 21.4035 5.02546 21.949 5.55727 22.4518C6.53403 23.3737 7.66624 24.1509 8.91576 24.7421C8.94928 24.7558 8.98128 24.7711 9.01328 24.7878C10.7398 25.5894 12.6826 26.0389 14.7397 26.0389C16.7954 26.0389 18.7397 25.5894 20.4662 24.7878ZM2.39232 17.5635C3.25023 18.528 4.49058 19.4758 6.35572 20.192C8.34582 20.9585 11.046 21.4644 14.7397 21.4644C18.4335 21.4644 21.1336 20.9585 23.1237 20.192C24.9873 19.4758 26.2308 18.528 27.0872 17.5635C27.2441 17.1017 27.3721 16.6278 27.4697 16.1433C26.7276 16.5775 25.7721 16.957 24.646 17.2694C22.0967 17.9779 18.5919 18.4153 14.7397 18.4153C10.8876 18.4153 7.38278 17.9779 4.83345 17.2694C3.70583 16.957 2.75041 16.5775 2.00984 16.1433C2.10736 16.6278 2.23689 17.1017 2.39232 17.5635Z" fill="white"/>
</svg>
