<svg width="35" height="36" viewBox="0 0 35 36" fill="none" xmlns="http://www.w3.org/2000/svg">
<path fill-rule="evenodd" clip-rule="evenodd" d="M16.8823 32.4566C16.0097 32.4583 15.1697 32.424 14.3623 32.352V35.0417C14.3623 35.5149 13.9783 35.8988 13.5051 35.8988C13.032 35.8988 12.648 35.5149 12.648 35.0417V32.1411C10.1074 31.7314 7.94056 30.9171 6.15256 29.6777C3.40284 27.7749 1.57025 24.9068 0.663395 21.012C0.557109 20.5525 0.843397 20.0914 1.30283 19.9851C1.3714 19.968 1.4417 19.9611 1.50856 19.9611C1.8017 19.9509 2.08797 19.956 2.37083 19.9748C2.41368 18.8554 2.56111 17.6211 2.8474 16.3354C3.13197 15.0514 3.55369 13.716 4.14855 12.3926C4.33883 11.9623 4.84627 11.7685 5.27655 11.9605L5.35712 12.0017L5.7497 12.2314C6.35141 11.0434 7.11082 9.85025 7.92682 8.76168C9.00854 7.31996 10.1965 6.05312 11.256 5.20969C11.5868 4.94741 12.0497 4.96796 12.3548 5.23711C12.5006 5.35196 12.6686 5.49427 12.8537 5.66055C13.2651 5.13598 13.7125 4.60112 14.1823 4.0714C14.7788 3.3994 15.4046 2.74284 16.0354 2.12913C16.0731 2.03313 16.1297 1.94399 16.2051 1.86341C16.3868 1.67141 16.6371 1.58226 16.8823 1.59598C17.1274 1.58226 17.376 1.67141 17.5594 1.86341C17.6331 1.94399 17.6897 2.03484 17.7274 2.12913C18.36 2.74284 18.9857 3.3994 19.5805 4.0714C20.0503 4.60112 20.4977 5.13598 20.9091 5.66055C21.0943 5.49427 21.264 5.35196 21.408 5.23711C21.7131 4.96796 22.1777 4.94741 22.5068 5.20969C23.568 6.05312 24.7543 7.31996 25.836 8.76168C26.6537 9.85025 27.4114 11.0434 28.0131 12.2314L28.4074 12.0017L28.4863 11.9605C28.9166 11.7685 29.424 11.9623 29.616 12.3926C30.2091 13.716 30.6326 15.0514 30.9171 16.3354C31.2034 17.6211 31.3508 18.8554 31.3937 19.9748C31.6748 19.956 31.9628 19.9509 32.2543 19.9611C32.3228 19.9611 32.3914 19.968 32.46 19.9851C32.9211 20.0914 33.2074 20.5525 33.0994 21.012C32.1925 24.9068 30.36 27.7749 27.612 29.6777C25.848 30.8983 23.7188 31.7091 21.2245 32.124V35.0417C21.2245 35.5166 20.8406 35.9005 20.3657 35.9005C19.8926 35.9005 19.5086 35.5166 19.5086 35.0417V32.3434C18.6686 32.4206 17.7943 32.4583 16.8823 32.4566ZM16.8823 3.69426C16.3937 4.18455 15.9154 4.69198 15.4628 5.20284C14.9846 5.74284 14.5251 6.29483 14.1034 6.84169L14.5183 7.2531L14.5594 7.29767C15.3977 8.13767 16.272 9.04797 16.8823 9.70111C17.4926 9.04797 18.3651 8.13767 19.2034 7.29767L19.2463 7.2531L19.6594 6.84169C19.2377 6.29483 18.78 5.74284 18.3017 5.20284C17.8474 4.69198 17.3708 4.18455 16.8823 3.69426ZM18.0531 10.9508C19.0937 11.9125 20.016 13.0817 20.7788 14.352C21.3823 15.3583 21.8863 16.4297 22.2668 17.5114C22.9577 16.5051 23.6726 15.6566 24.4474 14.9057C25.1091 14.2628 25.8085 13.6954 26.5663 13.1657C25.9971 12.0085 25.2634 10.8446 24.4697 9.78686C23.6588 8.70515 22.788 7.73653 21.9737 7.00282C21.5554 7.38339 21.0171 7.90624 20.4583 8.4651L20.412 8.508C19.5428 9.38057 18.6446 10.3165 18.0531 10.9508ZM16.8823 12.2006C15.9566 13.0508 15.1337 14.0931 14.4514 15.2297C13.6954 16.488 13.1143 17.8594 12.7628 19.2034C14.0108 20.0228 14.988 20.9177 15.7714 21.972C16.1983 22.548 16.5634 23.1651 16.8823 23.8371C17.1994 23.1651 17.5645 22.5462 17.9914 21.972C18.7765 20.916 19.7537 20.0211 21 19.2034C20.6486 17.8577 20.0657 16.488 19.3114 15.2297C18.6308 14.0931 17.8063 13.0508 16.8823 12.2006ZM23.028 19.4914C23.4891 20.0125 23.9177 20.5422 24.36 21.1817C24.7388 21.7337 25.1228 22.3645 25.5394 23.1411C26.2937 22.2445 27.1388 21.516 28.0697 20.9828C28.5857 20.6862 29.1274 20.4514 29.6931 20.2817C29.6657 19.1931 29.532 17.976 29.2491 16.704C29.052 15.8194 28.7828 14.904 28.428 13.9834C27.3891 14.6349 26.4737 15.3206 25.6388 16.1314C24.7045 17.04 23.856 18.1165 23.028 19.4914ZM17.7737 26.2869C17.8663 26.7257 17.604 27.168 17.1668 27.2897C17.0726 27.3171 16.9748 27.3257 16.8823 27.3206C16.788 27.3257 16.692 27.3171 16.596 27.2897C16.1588 27.168 15.8966 26.7257 15.9908 26.2869C15.5897 24.9857 15.0823 23.9125 14.3983 22.992C13.764 22.1382 12.9651 21.3994 11.94 20.7137C11.544 21.1646 11.1771 21.6223 10.8103 22.1537C10.2943 22.9011 9.76797 23.8148 9.14225 25.0902C9.07882 25.236 8.97599 25.3646 8.83542 25.4589C8.44285 25.7211 7.91142 25.6165 7.64913 25.224C6.84513 24.0188 5.90569 23.0777 4.84283 22.4691C4.15883 22.0783 3.41656 21.8211 2.62113 21.7183C3.49542 24.6291 4.99712 26.7994 7.12283 28.272C9.54169 29.9451 12.7988 30.7508 16.8823 30.7474C20.9657 30.7508 24.2228 29.9451 26.6417 28.272C28.7657 26.7994 30.2691 24.6291 31.1417 21.7183C30.3463 21.8211 29.604 22.0783 28.92 22.4691C27.8571 23.0777 26.9177 24.0188 26.1137 25.224C25.8514 25.6165 25.32 25.7211 24.9274 25.4589C24.7868 25.3646 24.684 25.236 24.6206 25.0902C23.9965 23.8148 23.4686 22.9011 22.9526 22.1537C22.5857 21.6206 22.2188 21.1646 21.8228 20.7137C20.7994 21.3994 19.9988 22.1382 19.3646 22.992C18.6823 23.9125 18.1748 24.9857 17.7737 26.2869ZM7.19655 13.1657C7.95426 13.6954 8.65369 14.2628 9.31712 14.9057C10.0903 15.6566 10.8068 16.5051 11.496 17.5114C11.8783 16.4297 12.3823 15.3583 12.9857 14.352C13.7468 13.0834 14.6708 11.9126 15.7097 10.9526C15.12 10.3183 14.22 9.38057 13.3508 8.508L13.3046 8.4651C12.7457 7.90624 12.2074 7.38339 11.7891 7.00282C10.9748 7.73653 10.1057 8.70515 9.29313 9.78686C8.50113 10.8446 7.76569 12.0085 7.19655 13.1657ZM4.06968 20.2817C4.63711 20.4514 5.17712 20.6862 5.69312 20.9828C6.62398 21.516 7.46912 22.2445 8.2234 23.1411C8.63997 22.3645 9.02397 21.7337 9.40454 21.1817C9.84511 20.5405 10.2737 20.0126 10.7348 19.4931C9.90854 18.1166 9.05998 17.04 8.12398 16.1314C7.28912 15.3206 6.37542 14.6349 5.33656 13.9834C4.97999 14.904 4.71083 15.8194 4.51368 16.704C4.23083 17.976 4.09711 19.1931 4.06968 20.2817Z" fill="white"/>
</svg>
