<svg width="129" height="24" viewBox="0 0 129 24" fill="none" xmlns="http://www.w3.org/2000/svg">
<g clip-path="url(#clip0)">
<path d="M35.4499 16.0176C35.928 16.0474 36.4071 15.9821 36.8592 15.8247C36.998 15.7523 37.1116 15.6395 37.185 15.5011C37.2584 15.3628 37.288 15.2055 37.2701 15.0499C37.2587 14.8848 37.203 14.7259 37.1089 14.5897C37.0148 14.4536 36.8858 14.3453 36.7354 14.2762C36.2175 13.9708 35.6736 13.7119 35.1101 13.5024C34.5831 13.3092 34.0663 13.0894 33.5616 12.8439C33.1287 12.6369 32.7314 12.3624 32.3847 12.0307C32.0498 11.7128 31.7858 11.3277 31.6099 10.9008C31.4224 10.4065 31.3306 9.88099 31.3392 9.35234C31.3186 8.80607 31.4295 8.26284 31.6625 7.76835C31.8956 7.27386 32.244 6.84256 32.6784 6.51074C33.7638 5.76205 35.0715 5.40457 36.3869 5.49698C37.1376 5.49506 37.8874 5.56418 38.6237 5.70626C39.2035 5.80706 39.7738 5.95778 40.3277 6.15458L39.6931 8.97314C39.2429 8.81954 38.7859 8.68994 38.3223 8.58626C37.7755 8.46708 37.2172 8.40976 36.6576 8.41538C35.5229 8.41538 34.9546 8.73026 34.9546 9.36002C34.9517 9.4925 34.9757 9.62402 35.0247 9.7469C35.0919 9.88034 35.1936 9.99266 35.3184 10.0723C35.5075 10.2019 35.7072 10.3162 35.9146 10.4131C36.168 10.537 36.4877 10.6714 36.8746 10.8163C37.5504 11.0563 38.208 11.3463 38.8416 11.6823C39.2995 11.9223 39.7152 12.2362 40.0723 12.6115C40.3642 12.9283 40.5811 13.3066 40.7069 13.7184C40.8375 14.1773 40.8989 14.6515 40.8931 15.1277C40.9252 15.6862 40.8122 16.2435 40.5653 16.7454C40.3184 17.2473 39.9458 17.6769 39.4839 17.9923C38.2704 18.7066 36.8718 19.0435 35.4663 18.96C34.5131 18.9793 33.5613 18.8807 32.6323 18.6663C32.1043 18.5405 31.5879 18.3773 31.0839 18.1776L31.6887 15.2362C32.3031 15.48 32.9367 15.6711 33.5847 15.8093C34.1977 15.9422 34.8227 16.012 35.4499 16.0176ZM51.2439 9.04322C50.8668 8.94863 50.4875 8.86317 50.1063 8.7869C49.6421 8.69612 49.17 8.65206 48.697 8.65538C48.4249 8.65937 48.1534 8.68021 47.8839 8.71778C47.6409 8.74329 47.4002 8.78726 47.1639 8.8493V18.5808H43.5408V6.51074C44.3027 6.25361 45.0783 6.03889 45.864 5.86754C46.8198 5.65982 47.7957 5.55872 48.7738 5.5661H49.4784C49.752 5.5661 50.0333 5.61026 50.3232 5.69762C50.5959 5.7389 50.8723 5.78882 51.1507 5.84546C51.3917 5.89346 51.6279 5.96258 51.8554 6.05378L51.2448 9.04322H51.2439ZM58.1424 5.49698C59.0464 5.47358 59.9483 5.59644 60.8131 5.86082C61.4601 6.06451 62.0474 6.42343 62.5239 6.90626C62.9607 7.37378 63.2746 7.94306 63.4378 8.56226C63.6241 9.26694 63.7151 9.9934 63.7085 10.7223V18.2554C63.192 18.3687 62.472 18.5031 61.5485 18.6586C60.4391 18.8259 59.318 18.9033 58.1962 18.8899C57.4426 18.8976 56.689 18.8256 55.9507 18.6739C55.3236 18.5514 54.7267 18.3067 54.1939 17.9539C53.7139 17.6266 53.328 17.1773 53.0784 16.6531C52.8029 16.035 52.6706 15.3626 52.6915 14.6861C52.6704 14.0256 52.8259 13.3709 53.1408 12.7901C53.4299 12.2827 53.8427 11.8566 54.3408 11.5517C54.8729 11.215 55.4596 10.9737 56.0746 10.8384C56.7303 10.7136 57.3975 10.656 58.0647 10.6685C58.4834 10.6662 58.9019 10.6867 59.3184 10.7299C59.6189 10.7587 59.9165 10.8096 60.2093 10.8855V10.5447C60.2226 10.2719 60.1801 9.99939 60.0843 9.74369C59.9886 9.48799 59.8416 9.25453 59.6525 9.05762C59.1046 8.63959 58.4181 8.44598 57.7325 8.51618C57.1229 8.51522 56.5143 8.55938 55.9123 8.6477C55.3843 8.72162 54.8659 8.8493 54.3639 9.0269L53.8992 6.1085C54.1104 6.0413 54.3696 5.97122 54.6739 5.89922C54.9783 5.82722 55.3344 5.76002 55.7424 5.69762C56.1139 5.64098 56.5056 5.59202 56.9184 5.55074C57.3312 5.50946 57.7392 5.49122 58.1424 5.49698ZM58.4362 16.0954H59.4576C59.7168 16.0867 59.976 16.0637 60.2323 16.0263V13.2461C60.0883 13.1895 59.881 13.1616 59.6131 13.1616C59.3559 13.1324 59.0973 13.1167 58.8384 13.1146C58.5178 13.1146 58.1971 13.1347 57.8784 13.177C57.6096 13.2115 57.3485 13.2903 57.1047 13.4093C56.8887 13.5139 56.7043 13.6743 56.5699 13.8739C56.4346 14.0919 56.3674 14.3443 56.377 14.6016C56.328 15.0711 56.5498 15.5271 56.9501 15.7776C57.4128 16.0006 57.9229 16.107 58.4362 16.0877V16.0954ZM70.1655 18.5808C69.3235 16.9863 68.4826 15.1018 67.6407 12.9293C66.7439 10.5942 65.9357 8.22614 65.2176 5.8301H69.0893C69.2487 6.4589 69.4397 7.14338 69.6624 7.88162C69.8832 8.6189 70.1107 9.36482 70.344 10.1184C70.5811 10.872 70.8154 11.6055 71.0477 12.3168C71.28 13.0301 71.5123 13.6771 71.7447 14.2608C72.2406 12.8899 72.7079 11.5088 73.1463 10.1184C73.3834 9.36482 73.6099 8.6189 73.8279 7.88162C74.0285 7.20058 74.2192 6.51667 74.4 5.8301H78.1162C77.4138 8.23115 76.6053 10.5999 75.6931 12.9293C74.8416 15.0816 73.9997 16.9651 73.1683 18.5808H70.1664H70.1655ZM80.0362 6.27074C80.8204 6.05795 81.6167 5.89253 82.4208 5.77538C83.4454 5.61616 84.4809 5.53848 85.5178 5.54306C86.4394 5.51658 87.3579 5.6611 88.2269 5.9693C88.8916 6.21402 89.4812 6.62758 89.9376 7.1693C90.3696 7.7117 90.6768 8.34338 90.8362 9.01922C91.0234 9.80066 91.1146 10.6013 91.1069 11.4039V18.5808H87.4848V11.8368C87.5494 10.9845 87.3891 10.1301 87.0202 9.35906C86.8211 9.09759 86.557 8.89283 86.2541 8.76516C85.9513 8.63749 85.6203 8.59137 85.2941 8.63138H84.4656L83.6909 8.71682V18.5799H80.0678L80.0371 6.26978L80.0362 6.27074ZM98.3232 2.13698C98.3472 2.72258 98.112 3.28898 97.68 3.68546C97.2582 4.04924 96.7197 4.24937 96.1627 4.24937C95.6057 4.24937 95.0672 4.04924 94.6454 3.68546C94.432 3.4897 94.2639 3.24972 94.1528 2.98227C94.0417 2.71482 93.9903 2.42634 94.0022 2.13698C93.9782 1.55138 94.2134 0.984982 94.6454 0.588502C95.0672 0.224721 95.6057 0.0245972 96.1627 0.0245972C96.7197 0.0245972 97.2582 0.224721 97.68 0.588502C98.112 0.984982 98.3472 1.55138 98.3232 2.13698ZM97.9738 18.5808H94.3507V5.8301H97.9738V18.5808ZM104.918 16.6992C104.939 17.0109 104.888 17.3231 104.768 17.6118C104.649 17.9005 104.465 18.1578 104.23 18.3639C103.794 18.7226 103.246 18.9186 102.682 18.9186C102.117 18.9186 101.569 18.7226 101.133 18.3639C100.898 18.1579 100.714 17.9006 100.594 17.6119C100.475 17.3233 100.423 17.011 100.444 16.6992C100.423 16.3875 100.475 16.0752 100.594 15.7865C100.714 15.4979 100.898 15.2406 101.133 15.0346C101.569 14.6759 102.117 14.4798 102.682 14.4798C103.246 14.4798 103.794 14.6759 104.23 15.0346C104.705 15.4522 104.96 16.0675 104.918 16.6992ZM115.053 9.04322C114.676 8.94862 114.296 8.86315 113.915 8.7869C113.451 8.69619 112.979 8.65213 112.506 8.65538C112.234 8.65937 111.963 8.68021 111.693 8.71778C111.45 8.74329 111.209 8.78726 110.973 8.8493V18.5808H107.35V6.51074C108.112 6.25365 108.887 6.03892 109.672 5.86754C110.642 5.6573 111.631 5.5565 112.622 5.5661H113.326C113.6 5.5661 113.876 5.5997 114.155 5.6669C114.428 5.70818 114.705 5.75714 114.983 5.81378C115.224 5.86178 115.46 5.93186 115.688 6.02306L115.053 9.04226V9.04322ZM128.516 18.1776C127.732 18.3917 126.936 18.5568 126.132 18.6739C125.107 18.8332 124.071 18.9108 123.035 18.9063C122.112 18.9349 121.193 18.7876 120.325 18.4723C119.658 18.2179 119.068 17.7937 118.614 17.2416C118.18 16.688 117.873 16.0456 117.716 15.36C117.53 14.5712 117.439 13.7628 117.445 12.9523V5.82914H121.068V12.5107C121.008 13.3802 121.168 14.251 121.533 15.0423C121.723 15.316 121.984 15.5328 122.289 15.6693C122.593 15.8058 122.928 15.8568 123.259 15.817H124.088C124.382 15.817 124.64 15.7882 124.862 15.7315V5.8301H128.516V18.1776Z" fill="white"/>
<path d="M8.02081 14.4077C7.51782 13.5646 7.31035 12.5777 7.43123 11.6034C7.55212 10.6291 7.99445 9.7229 8.68825 9.02823C9.38204 8.33355 10.2877 7.89007 11.2618 7.76795C12.236 7.64583 13.2231 7.85204 14.0669 8.35396L18.8208 3.60004C16.6989 1.8551 14.0032 0.962743 11.2592 1.09687C8.5152 1.231 5.91944 2.38201 3.97778 4.32559C2.03612 6.26917 0.887679 8.86606 0.756257 11.6102C0.624836 14.3543 1.51985 17.0491 3.26689 19.1693L8.02081 14.4077Z" fill="white"/>
<path d="M20.3846 5.17157L15.6307 9.92549C16.1228 10.769 16.3216 11.7517 16.1963 12.7202C16.071 13.6887 15.6286 14.5884 14.9381 15.2789C14.2475 15.9694 13.3478 16.4119 12.3793 16.5372C11.4109 16.6625 10.4282 16.4636 9.58464 15.9716L4.83072 20.7332C6.95292 22.4703 9.64502 23.3566 12.3841 23.2199C15.1232 23.0832 17.7137 21.9334 19.6525 19.9937C21.5912 18.054 22.7398 15.4629 22.8751 12.7237C23.0104 9.98458 22.1228 7.29291 20.3846 5.17157Z" fill="white"/>
</g>
<defs>
<clipPath id="clip0">
<rect width="128.64" height="24" fill="white"/>
</clipPath>
</defs>
</svg>
