<svg width="36" height="36" viewBox="0 0 36 36" fill="none" xmlns="http://www.w3.org/2000/svg">
<path fill-rule="evenodd" clip-rule="evenodd" d="M14.7673 33.6439L22.0662 26.3448L8.26741 22.2894C7.79221 22.185 7.48443 21.7152 7.57983 21.2328L8.79844 15.1416L2.53266 21.4093L14.7673 33.6439ZM20.6424 24.0553L10.8162 14.229L9.50585 20.7811L20.6424 24.0553ZM30.0763 11.8746L25.9452 16.0038L28.9117 18.9702C29.0053 19.0638 29.0754 19.1755 29.1186 19.2907L33.3072 15.1038L30.0763 11.8746ZM24.6726 17.2782L20.5434 21.4075L23.7726 24.6384L27.9612 20.4516C27.8424 20.4066 27.7327 20.3382 27.6391 20.2428L24.6726 17.2782ZM19.269 20.1349L23.4 16.0038L20.169 12.7746L16.0399 16.9056L19.269 20.1349ZM24.6726 14.7312L28.8037 10.6003L25.5726 7.37105L21.4434 11.5021L24.6726 14.7312ZM14.7673 15.6312L18.8964 11.5021L15.6673 8.27286L11.538 12.4038L14.7673 15.6312ZM20.169 10.2277L24.3 6.09844L21.0708 2.86923L16.9399 6.99844L20.169 10.2277ZM35.2152 15.741L15.4045 35.5554C15.0535 35.9064 14.481 35.9064 14.13 35.5554L0.621038 22.0464C0.270038 21.6954 0.270038 21.1248 0.621038 20.7738L9.61384 11.7793L9.62285 11.7702L15.0138 6.37925L15.03 6.36124L15.0463 6.34503L20.4336 0.959424C20.7846 0.606624 21.3552 0.606624 21.708 0.959424L30.6972 9.94685L30.7134 9.96486L30.7296 9.98107L35.2152 14.4666C35.568 14.8194 35.568 15.39 35.2152 15.741Z" fill="white"/>
</svg>
