<svg width="40" height="40" viewBox="0 0 40 40" fill="none" xmlns="http://www.w3.org/2000/svg">
<path d="M0.928589 19.9999C0.928589 9.31914 9.58708 0.660645 20.2679 0.660645C30.9487 0.660645 39.6072 9.31914 39.6072 19.9999C39.6072 30.6807 30.9487 39.3392 20.2679 39.3392C9.58708 39.3392 0.928589 30.6807 0.928589 19.9999Z" fill="#55ACEE"/>
<path d="M19.6886 16.3798L19.7292 17.049L19.0528 16.967C16.5909 16.6529 14.44 15.5877 12.6138 13.7987L11.721 12.911L11.491 13.5665C11.004 15.0278 11.3152 16.571 12.3297 17.6089C12.8708 18.1825 12.7491 18.2644 11.8157 17.923C11.491 17.8138 11.2069 17.7318 11.1799 17.7728C11.0852 17.8684 11.4099 19.1112 11.6669 19.6028C12.0186 20.2856 12.7355 20.9548 13.5201 21.3509L14.183 21.665L13.3984 21.6786C12.6408 21.6786 12.6138 21.6923 12.695 21.9791C12.9655 22.8668 14.0342 23.8091 15.2246 24.2188L16.0633 24.5056L15.3328 24.9426C14.2506 25.5708 12.979 25.9259 11.7075 25.9532C11.0987 25.9669 10.5982 26.0215 10.5982 26.0625C10.5982 26.199 12.2486 26.9638 13.209 27.2643C16.0903 28.152 19.5128 27.7696 22.083 26.2537C23.9092 25.1748 25.7354 23.0307 26.5876 20.9548C27.0476 19.8486 27.5075 17.8274 27.5075 16.8578C27.5075 16.2296 27.5481 16.1476 28.3056 15.3965C28.752 14.9595 29.1714 14.4815 29.2525 14.3449C29.3878 14.0855 29.3743 14.0855 28.6844 14.3176C27.5345 14.7273 27.3722 14.6727 27.9404 14.0581C28.3597 13.6211 28.8602 12.829 28.8602 12.5969C28.8602 12.5559 28.6573 12.6242 28.4274 12.7471C28.1839 12.8837 27.6428 13.0885 27.2369 13.2114L26.5065 13.4436L25.8436 12.9929C25.4784 12.7471 24.9643 12.474 24.6938 12.392C24.0039 12.2008 22.9487 12.2281 22.3265 12.4466C20.6356 13.0612 19.5669 14.6454 19.6886 16.3798Z" fill="white"/>
</svg>
