<svg width="38" height="36" viewBox="0 0 38 36" fill="none" xmlns="http://www.w3.org/2000/svg">
<g clip-path="url(#clip0)">
<path fill-rule="evenodd" clip-rule="evenodd" d="M23.8396 30.6493L23.7865 30.7005C21.7554 32.7089 19.2335 33.931 16.6093 34.3592C13.8923 34.8045 11.0615 34.4028 8.54719 33.1504C6.7453 32.2541 4.9794 33.1939 3.23813 34.1185C2.93308 34.2777 2.62804 34.4407 2.31731 34.596L2.3154 34.5979C2.04824 34.7571 1.70718 34.7817 1.40781 34.6321C0.939812 34.399 0.75034 33.8306 0.983393 33.3626C1.17666 32.9723 1.40023 32.5706 1.62002 32.1727C2.5276 30.5243 3.4257 28.891 2.57118 27.1706C1.32255 24.6562 0.918966 21.8274 1.36233 19.1123C1.79623 16.4634 3.03351 13.9188 5.07224 11.8819C7.66803 9.28992 11.0634 7.99392 14.4569 7.99392C16.5221 7.99392 18.5874 8.47329 20.4726 9.43203C21.4958 8.02803 22.3409 6.82109 22.9358 5.62741C23.5933 4.31246 23.9552 2.98613 23.9401 1.36234C23.9363 0.84129 24.355 0.415005 24.876 0.411216C25.3971 0.407426 25.8253 0.828048 25.8291 1.3491C25.848 3.31015 25.4141 4.90169 24.6297 6.47243C23.995 7.74569 23.1348 8.98676 22.0983 10.4116C22.4583 10.6655 22.8089 10.9402 23.1461 11.2339L33.895 0.485113C34.2664 0.115639 34.867 0.115639 35.2364 0.485113C35.6078 0.854587 35.6078 1.45518 35.2364 1.82654L24.4857 12.5754C24.787 12.9202 25.0655 13.2764 25.3232 13.644C27.6594 11.8705 29.2548 10.6996 30.7402 9.86593C32.4114 8.92804 33.9158 8.42593 36.0815 8.01098C36.595 7.91245 37.0914 8.24781 37.1899 8.76129C37.2865 9.27476 36.9512 9.77121 36.4377 9.86784C34.4842 10.243 33.1409 10.6902 31.6668 11.5182C30.2382 12.3196 28.6542 13.4868 26.3009 15.2754C27.254 17.1531 27.7276 19.2089 27.7276 21.2647C27.7276 24.6619 26.4316 28.0573 23.8396 30.6493ZM8.71392 18.2255C8.5055 18.703 7.94845 18.9228 7.46909 18.7144C6.99161 18.506 6.77183 17.9489 6.98025 17.4695C7.41036 16.4899 8.00149 15.6297 8.70823 14.9078C9.44339 14.1594 10.3036 13.5569 11.2358 13.1268C11.7095 12.9089 12.2722 13.1154 12.492 13.591C12.7099 14.0647 12.5034 14.6255 12.0278 14.8453C11.2984 15.1807 10.6276 15.6505 10.0554 16.2322C9.50783 16.7931 9.0474 17.4619 8.71392 18.2255ZM16.1261 14.3584C15.6146 14.2579 15.2792 13.7596 15.3796 13.248C15.48 12.7346 15.9765 12.3992 16.4899 12.4996C16.7874 12.5583 17.0868 12.636 17.3842 12.7289C17.6685 12.8179 17.9602 12.9278 18.2539 13.0567C18.7314 13.2632 18.9512 13.8221 18.7428 14.2996C18.5343 14.7771 17.9773 14.9969 17.4979 14.7884C17.28 14.6937 17.0527 14.6084 16.8196 14.5345C16.5922 14.4625 16.3592 14.4038 16.1261 14.3584ZM6.45161 13.1798L6.41182 13.2215C4.66109 14.9722 3.60002 17.1512 3.22865 19.4154C2.84781 21.746 3.19455 24.175 4.26698 26.3331C5.25034 28.315 4.82781 29.9843 4.06613 31.5853C5.69371 30.8559 7.40278 30.4769 9.36952 31.4451L9.39224 31.4564C11.5485 32.5289 13.9756 32.8737 16.3042 32.4929C18.5533 32.1253 20.7152 31.0794 22.4565 29.3571L22.5 29.3097C24.7226 27.0872 25.8329 24.1769 25.8329 21.2647C25.8329 18.3714 24.7339 15.4762 22.5417 13.2613L22.536 13.2556L22.5171 13.2386L22.5 13.2215C20.2794 10.999 17.3672 9.88866 14.4569 9.88866C11.5617 9.88866 8.66845 10.9876 6.45161 13.1798Z" fill="white"/>
</g>
<defs>
<clipPath id="clip0">
<rect width="37.8947" height="36" fill="white"/>
</clipPath>
</defs>
</svg>
