<svg width="39" height="40" viewBox="0 0 39 40" fill="none" xmlns="http://www.w3.org/2000/svg">
<path fill-rule="evenodd" clip-rule="evenodd" d="M13.4024 0.660645H25.2762C36.1127 0.660645 38.6786 3.22647 38.6786 14.063V25.9368C38.6786 36.7734 36.1127 39.3392 25.2762 39.3392H13.4024C2.56583 39.3392 0 36.7734 0 25.9368V14.063C0 3.22647 2.56583 0.660645 13.4024 0.660645Z" fill="#4680C2"/>
<path fill-rule="evenodd" clip-rule="evenodd" d="M31.6135 13.0064C31.8045 12.406 31.6135 11.9692 30.7673 11.9692H27.9557C27.2461 11.9692 26.9185 12.3513 26.7275 12.7608C26.7275 12.7608 25.2807 16.2547 23.2608 18.5202C22.6057 19.1754 22.3055 19.3937 21.9507 19.3937C21.7595 19.3937 21.5139 19.1754 21.5139 18.5749V12.9791C21.5139 12.2695 21.2955 11.9419 20.695 11.9419H16.273C15.8363 11.9419 15.5634 12.2695 15.5634 12.597C15.5634 13.2794 16.5733 13.4432 16.6825 15.3539V19.5029C16.6825 20.4037 16.5187 20.5675 16.1639 20.5675C15.2085 20.5675 12.8884 17.0463 11.4962 13.0338C11.2232 12.2421 10.9503 11.9419 10.2406 11.9419H7.40179C6.58293 11.9419 6.44644 12.3241 6.44644 12.7335C6.44644 13.4705 7.40179 17.1828 10.8957 22.0961C13.2159 25.4534 16.5187 27.255 19.494 27.255C21.2955 27.255 21.5139 26.8456 21.5139 26.1632V23.6247C21.5139 22.8057 21.6777 22.6693 22.2509 22.6693C22.6603 22.6693 23.3973 22.8876 25.0623 24.4981C26.9731 26.4088 27.3006 27.2823 28.3652 27.2823H31.1767C31.9956 27.2823 32.3778 26.8729 32.1594 26.0812C31.9137 25.2897 30.9857 24.1433 29.7846 22.7784C29.1295 22.0142 28.1468 21.168 27.8466 20.7585C27.4371 20.2127 27.5463 19.9943 27.8466 19.5029C27.8193 19.5029 31.2586 14.6442 31.6135 13.0064Z" fill="white"/>
</svg>
